<svg id="Layer_1" data-name="Layer 1" xmlns="http://www.w3.org/2000/svg" viewBox="0 0 1599.31 228.05"><defs><style>.cls-1{fill:#141414;}.cls-2{fill:#00c0e8;}.cls-3{fill:#0b1117;}</style></defs><path class="cls-1" d="M622.49,91.06C600.7,87.86,596,85.42,596,80.56s6.15-9,20.63-9c11.39,0,23.18,2.81,33.56,7,2.7,1,5.14,2.18,7.57,3.33V60.65c-.17-.08-.34-.14-.52-.21C645.81,55.57,633.76,53,617.87,53c-28.31,0-47,12.68-47,28.83,0,17.94,15.12,24.35,45,28.57,21,3,26.14,5.26,26.14,10.51,0,5.9-7.69,9.74-24.74,9.74-11,0-24.06-3-35.24-7.56a104.14,104.14,0,0,1-9.45-4.42V140l2.41,1a114.51,114.51,0,0,0,43.44,8.2c27.55,0,48.82-11.14,48.82-29.47C667.21,101.84,653,95.42,622.49,91.06Z"/><path class="cls-1" d="M275.48,54.82c25.73,0,40.19,12.24,40.19,31.43,0,20.3-16,32.12-41.44,32.12h-28v29.06h-24.2V54.82Zm-29.2,44.92h24.47c15.72,0,20.86-5,20.86-13.07,0-7.79-5.7-13.08-19.75-13.08H246.28Z"/><path class="cls-1" d="M380.47,147.43h-24.2V54.82H416.9c25.45,0,38.93,11.27,38.93,30.32,0,15-9.87,24.89-24.33,28.78l28.92,33.51H432.75l-26.84-31.7H380.47Zm0-49.64h30.59c13.49,0,20.3-4,20.3-12.24,0-7.78-5.56-12.09-19.19-12.09h-31.7Z"/><path class="cls-1" d="M527.17,54.82v92.61H502.83V54.82Z"/><path class="cls-1" d="M740.77,54.82l32.4,63h.42l32.12-63H841v92.61H817.11V78.32h-.27L781.1,147.57H763.85L728.12,78.32h-.28v69.11H705.45V54.82Z"/><path class="cls-1" d="M964.16,130.89H911l-8.21,16.54H877.66L924.8,54.27h26.43l47.27,93.16H972.36Zm-44.78-17h36.43L937.74,77.07h-.28Z"/><polygon class="cls-2" points="113.4 147.43 113.4 54.65 161.87 147.43 113.4 147.43"/><polygon class="cls-2" points="113.39 54.65 64.92 147.43 113.39 147.43 113.39 214.23 13.2 114.03 64.44 62.77 72.58 54.65 113.39 13.82 113.39 54.65"/><path d="M999.86,62.51v-.35c0-2-1.51-3.36-4.17-3.36h-4.63V69.46h2.2V65.87h2.44l1.84,3.59H1000l-2.26-4.22a2.78,2.78,0,0,0,2.15-2.73m-6.6-1.74h2.43c1.39,0,2,.47,2,1.51v.11c0,.93-.58,1.51-2,1.51h-2.43Z"/><path d="M995.22,53.13a11,11,0,1,0,11,11,10.78,10.78,0,0,0-11-11m0,20.49a9.08,9.08,0,0,1-9.37-9.49,9.38,9.38,0,1,1,18.75,0,9.08,9.08,0,0,1-9.38,9.49"/><path class="cls-3" d="M222.62,186.37h15.81c5.24,0,8.39,2.15,8.39,6.31,0,2.8-1.11,4.77-4.23,5.77,3.23,1.3,4.77,3,4.77,6,0,5.19-4,7.06-9.5,7.06H222.62Zm13.8,10c2.08,0,2.94-.64,2.94-2.26s-.93-2.15-2.94-2.15H230v4.41Zm.36,9.36c2.22,0,3.09-.72,3.09-2.37s-.87-2.33-3.09-2.33H230v4.73Z"/><path class="cls-3" d="M262.47,203.44l-11-17.07h8.46l6.2,10h.36l6.28-10H281l-11,17v8.07h-7.56Z"/><path class="cls-3" d="M300.62,186.37h14.81c6.17,0,9.43,3.55,9.43,9.36,0,6.56-4.19,9.57-10,9.57h-6.71v6.17h-7.53Zm13.48,13c2.34,0,3.34-1.51,3.34-3.48,0-2.26-1.11-3.48-3.41-3.48h-5.88v7Z"/><path class="cls-3" d="M337.06,186.37h12.12l8.71,25.1H350l-1.76-5.2H337.89l-1.79,5.2h-7.75Zm2.66,14.27h6.74l-2.69-7.89h-1.36Z"/><path class="cls-3" d="M364.51,186.37H372V205h13.31l-.29,6.49H364.51Z"/><path class="cls-3" d="M390.26,198.92c0-8.17,5.56-13.3,14.34-13.3S419,190.75,419,198.92s-5.56,13.3-14.35,13.3S390.26,207.1,390.26,198.92Zm21.19,0c0-4.34-2.51-6.92-6.85-6.92s-6.85,2.58-6.85,6.92,2.52,6.92,6.82,6.92S411.45,203.26,411.45,198.92Z"/><path class="cls-3" d="M446.6,186.37h12.11l8.72,25.1h-7.89l-1.76-5.2H447.42l-1.79,5.2h-7.75Zm2.65,14.27H456l-2.69-7.89h-1.36Z"/><path class="cls-3" d="M474,186.37h7.53V205h13.3l-.29,6.49H474Z"/><path class="cls-3" d="M505.39,192.83H496.6l.29-6.46h24.56l.29,6.46H513v18.64h-7.56Z"/><path class="cls-3" d="M526.66,198.92c0-8.17,5.56-13.3,14.34-13.3s14.35,5.13,14.35,13.3-5.56,13.3-14.35,13.3S526.66,207.1,526.66,198.92Zm21.19,0c0-4.34-2.51-6.92-6.85-6.92s-6.85,2.58-6.85,6.92,2.51,6.92,6.82,6.92S547.85,203.26,547.85,198.92Z"/><path class="cls-3" d="M576.61,186.37h7.82l10.79,14.24h.11V186.37h7.17v25.1h-7.57l-11-14.59h-.1v14.59h-7.18Z"/><path class="cls-3" d="M611.44,186.37h21.94l.29,6.1H618.93v3.44h11.59v5.56H618.93v3.9H634.1l-.29,6.1H611.44Z"/><path class="cls-3" d="M648.78,192.83H640l.29-6.46h24.56l.29,6.46h-8.79v18.64h-7.56Z"/><path class="cls-3" d="M670.59,186.37h8l4.09,17.43h.39l5.31-17.43h7.35L701,203.8h.39l4-17.43H713l-6.6,25.1h-9.86L692,196.34h-.21l-4.66,15.13h-9.9Z"/><path class="cls-3" d="M718,198.92c0-8.17,5.56-13.3,14.35-13.3s14.34,5.13,14.34,13.3-5.56,13.3-14.34,13.3S718,207.1,718,198.92Zm21.19,0c0-4.34-2.51-6.92-6.84-6.92s-6.85,2.58-6.85,6.92,2.51,6.92,6.81,6.92S739.15,203.26,739.15,198.92Z"/><path class="cls-3" d="M754.19,186.37h14.63c6.67,0,9.93,3.16,9.93,9,0,4-1.65,6.74-4.88,8l6,8.07h-8.53l-4.62-6.6h-4.95v6.6h-7.53ZM767.85,199c2.51,0,3.41-1.4,3.41-3.3s-.9-3.26-3.41-3.26h-6.13V199Z"/><path class="cls-3" d="M786.51,186.37H794v9.25h3.08l7.35-9.25h8.46l0,0-9.61,12,10.14,13,0,0h-8.79l-7.6-9.65h-3v9.65h-7.53Z"/><path class="cls-3" d="M818.61,209.82v-6.88h0a27,27,0,0,0,11.84,3.15c2.68,0,4-.64,4-1.9s-.9-1.58-6.28-2.44c-5.88-.93-9.79-2.69-9.79-7.74,0-4.7,4.13-8.32,12.19-8.32a25,25,0,0,1,9.72,2v6.81l0,0a22,22,0,0,0-10.21-2.8c-2.87,0-4,.68-4,1.83,0,1.47,1.76,1.61,6.17,2.36,5.88,1,9.79,2.66,9.79,8,0,4.13-3.09,8.25-11.94,8.25A30,30,0,0,1,818.61,209.82Z"/><path class="cls-3" d="M1053.58,139.23V118.84h.13c12.87,7,28.2,11.3,40.8,11.3,12.34,0,18.58-3.64,18.58-9.62,0-6.23-5.19-8-26-11.69-15.72-2.73-33.53-7.67-33.53-25.73,0-15.2,12.48-29.75,40.8-29.75,11.44,0,24.56,3.25,33.91,8.57V82.33h-.12c-10.4-6.63-23.65-10.66-35.34-10.66-13,0-18.33,3.9-18.33,9.49,0,7.66,11.18,8.44,25.47,11,15.72,2.86,34,7.41,34,27,0,10.79-5.84,29.24-39.63,29.24C1077.1,148.46,1064.11,144.43,1053.58,139.23Z"/><path class="cls-3" d="M1179.28,55.43h30.79l35.34,90.95H1224.5l-8.19-21.57h-43.66l-8.32,21.57H1143.8Zm.12,51.84h30.15l-12.6-33h-4.81Z"/><path class="cls-3" d="M1258.47,139.23V118.84h.13c12.86,7,28.19,11.3,40.8,11.3,12.34,0,18.58-3.64,18.58-9.62,0-6.23-5.2-8-26-11.69-15.72-2.73-33.52-7.67-33.52-25.73,0-15.2,12.48-29.75,40.8-29.75,11.43,0,24.56,3.25,33.91,8.57V82.33h-.13c-10.39-6.63-23.65-10.66-35.34-10.66-13,0-18.32,3.9-18.32,9.49,0,7.66,11.18,8.44,25.47,11,15.72,2.86,34,7.41,34,27,0,10.79-5.85,29.24-39.63,29.24C1282,148.46,1269,144.43,1258.47,139.23Z"/><path class="cls-3" d="M1357.53,55.43h75.75l.65,18.06H1377.4V90.25h45.48v18.06H1377.4v20h58.48l-.65,18.06h-77.7Z"/></svg>