<svg xmlns="http://www.w3.org/2000/svg" viewBox="0 0 24 24"><defs><style>.a{fill:none;stroke:#9476E7;stroke-linecap:round;stroke-linejoin:round;}</style></defs><title>cloud-lock</title><path class="a" d="M20.5,13.906A4.313,4.313,0,0,0,23,9.857a4.711,4.711,0,0,0-4.954-4.635A6.707,6.707,0,0,0,12,1.5,6.605,6.605,0,0,0,5.325,7.608,3.561,3.561,0,0,0,1,11.017,3.186,3.186,0,0,0,3.5,14.3"/><path class="a" d="M17,21.5a1,1,0,0,1-1,1H9a1,1,0,0,1-1-1v-6a1,1,0,0,1,1-1h7a1,1,0,0,1,1,1Z"/><circle class="a" cx="12.5" cy="18.563" r="1.25"/><path class="a" d="M15,13a2.5,2.5,0,0,0-5,0v1.5h5Z"/></svg>