<?xml version="1.0" encoding="utf-8"?>
<!-- Generator: Adobe Illustrator 25.2.3, SVG Export Plug-In . SVG Version: 6.00 Build 0)  -->
<svg version="1.1" id="Layer_1" xmlns="http://www.w3.org/2000/svg" xmlns:xlink="http://www.w3.org/1999/xlink" x="0px" y="0px"
	 viewBox="0 0 1647.2 468.6" style="enable-background:new 0 0 1647.2 468.6;" xml:space="preserve">
<style type="text/css">
	.st0{fill:#00CC66;}
</style>
<g>
	<g>
		<g>
			<path class="st0" d="M167.2,107.2c0,33.8-27.2,61.2-60.7,61.2V45.9C140,45.9,167.2,73.4,167.2,107.2z"/>
			<path class="st0" d="M45.7,107.2c0,33.8,27.2,61.2,60.7,61.2v46.2C47.7,214.6,0,166.6,0,107.3C0,48,47.7,0,106.4,0v45.9
				C72.9,45.9,45.7,73.4,45.7,107.2z"/>
			<g>
				<path class="st0" d="M233.6,107.9c0,36.3,28.4,61.7,78.2,61.7c18,0,33-3.6,46-9v-28.8c-12.7,6.5-26.2,12-44.3,12
					c-28.9,0-47-13.7-47-36.1c0-21.9,18.8-36.1,47.4-36.1c18.2,0,31.2,5.5,43.9,11.9v-29c-13.2-5.3-27.6-8.7-45.6-8.7
					C263.7,45.8,233.6,73.2,233.6,107.9z"/>
				<path class="st0" d="M721.1,87.2c0-24.4-18.2-38.8-52.6-38.8h-71.7v118.5h32.7v-40.6h24.2l36.3,40.6h37.4L688.2,124
					C707.7,119.1,721.1,106.4,721.1,87.2z M660.6,103.4h-31.1V72.3h32.6c18.4,0,25.9,5.5,25.9,15.5
					C688,98.2,678.8,103.4,660.6,103.4z"/>
				<polygon class="st0" points="760.4,73.9 809.7,73.9 809.7,166.9 842.4,166.9 842.4,73.9 891.8,73.9 891.8,48.4 760.4,48.4 				
					"/>
				<polygon class="st0" points="938.2,166.9 1051.9,166.9 1051.9,142.7 970.3,142.7 970.3,118 1030.9,118 1030.9,95.9 970.3,95.9 
					970.3,72.6 1051.9,72.6 1051.9,48.4 938.2,48.4 				"/>
				<polygon class="st0" points="1179.5,106.8 1232.3,48.4 1193.6,48.4 1160.3,88.1 1127,48.4 1086.9,48.4 1139.7,107.1 
					1085.4,166.9 1124.1,166.9 1158.9,127.7 1193.8,166.9 1233.8,166.9 				"/>
				<g>
					<g>
						<path class="st0" d="M550.6,107.7c0,37.4-28.9,62.5-72.9,62.5c-43.6,0-72.6-25.1-72.6-62.5c0-37.4,28.9-62.5,72.6-62.5
							C521.6,45.2,550.6,70.5,550.6,107.7z M440.8,107.7c0,22.1,16.2,35.1,36.9,35.1c20.8,0,37.2-13,37.2-35.1
							c0-22.2-16.4-35.1-37.2-35.1C457,72.6,440.8,85.4,440.8,107.7z"/>
					</g>
				</g>
				<path class="st0" d="M1261.9,58.9v-0.4c0-2.2-1.7-3.7-4.6-3.7h-5.1v11.9h2.4v-4h2.7l2,4h2.7l-2.5-4.7
					C1261,61.4,1261.9,60.3,1261.9,58.9 M1254.6,56.9h2.7c1.5,0,2.2,0.5,2.2,1.7v0.1c0,1-0.6,1.7-2.2,1.7h-2.7V56.9z M1256.8,48.4
					c-6.9,0-12.1,5.3-12.1,12.2c0,7,5.2,12.2,12.1,12.2c6.9,0,12.1-5.3,12.1-12.2C1268.9,53.7,1263.7,48.4,1256.8,48.4 M1256.8,71.2
					c-6,0-10.4-4.4-10.4-10.6c0-6.2,4.3-10.6,10.4-10.6c6,0,10.4,4.4,10.4,10.6C1267.1,66.8,1262.8,71.2,1256.8,71.2"/>
			</g>
		</g>
	</g>
	<g>
		<g>
			<path class="st0" d="M559.3,444.6v-53.1h0.3c33.5,18.2,73.3,29.4,106.1,29.4c32.1,0,48.3-9.5,48.3-25c0-16.2-13.5-21-67.6-30.4
				c-40.9-7.1-87.2-19.9-87.2-66.9c0-39.5,32.4-77.4,106.1-77.4c29.7,0,63.9,8.4,88.2,22.3v53.1h-0.3c-27-17.2-61.5-27.7-91.9-27.7
				c-33.8,0-47.6,10.1-47.6,24.7c0,19.9,29.1,22,66.2,28.7c40.9,7.4,88.5,19.3,88.5,70.3c0,28-15.2,76-103.1,76
				C620.5,468.6,586.7,458.1,559.3,444.6z"/>
			<path class="st0" d="M815.1,344.9c0-75,50.3-123.7,130.1-123.7c79.8,0,130.1,48.7,130.1,123.7c0,75-50.3,123.7-130.1,123.7
				C865.5,468.6,815.1,419.9,815.1,344.9z M1021.9,344.9c0-47.6-27.4-76.7-76.4-76.7c-49,0-77,29.1-77,76.7s27.4,76.7,76.4,76.7
				S1021.9,392.5,1021.9,344.9z"/>
			<path class="st0" d="M1199.1,226.6h80.1l91.9,236.5h-54.4l-21.3-56.1h-113.5l-21.6,56.1h-53.4L1199.1,226.6z M1199.5,361.5h78.4
				l-32.8-85.8h-12.5L1199.5,361.5z"/>
			<path class="st0" d="M1422.2,226.6h125.7c60.5,0,89.9,28.4,89.9,81.4c0,39.2-17.2,64.5-50.7,75.4l60.1,79.7h-61.2l-50-69.6h-61.8
				v69.6h-52V226.6z M1546.5,347.6c28.4,0,38.5-15.9,38.5-37.2c0-21.3-10.1-36.8-38.5-36.8h-72.3v74H1546.5z"/>
		</g>
		<g>
			<path class="st0" d="M248.9,463.2v-0.3l99-122l-91.6-113.9v-0.3h62.5l62.5,80.8l63.6-80.8h61.5v0.3l-91.3,112.9l98,123v0.3H450
				l-69-89.6l-70.3,89.6H248.9z"/>
		</g>
	</g>
</g>
</svg>
