<?xml version="1.0" encoding="utf-8"?>
<!-- Generator: Adobe Illustrator 25.2.3, SVG Export Plug-In . SVG Version: 6.00 Build 0)  -->
<svg version="1.1" id="Layer_1" xmlns="http://www.w3.org/2000/svg" xmlns:xlink="http://www.w3.org/1999/xlink" x="0px" y="0px"
	 viewBox="0 0 722.7 169.3" style="enable-background:new 0 0 722.7 169.3;" xml:space="preserve">
<style type="text/css">
	.st0{fill:#808080;}
	.st1{fill:#00CC66;}
</style>
<path class="st0" d="M293,124.3v-21h0.1c13.2,7.2,29,11.6,41.9,11.6c12.7,0,19.1-3.7,19.1-9.9c0-6.4-5.3-8.3-26.7-12
	c-16.2-2.8-34.4-7.9-34.4-26.4c0-15.6,12.8-30.6,41.9-30.6c11.7,0,25.2,3.3,34.8,8.8v21h-0.1C358.9,59.1,345.3,55,333.3,55
	c-13.3,0-18.8,4-18.8,9.7c0,7.9,11.5,8.7,26.2,11.3c16.1,2.9,35,7.6,35,27.8c0,11.1-6,30-40.7,30C317.2,133.8,303.8,129.7,293,124.3
	z"/>
<path class="st0" d="M394,85c0-29.6,19.9-48.8,51.4-48.8s51.4,19.2,51.4,48.8s-19.9,48.9-51.4,48.9S394,114.6,394,85z M475.7,85
	c0-18.8-10.8-30.3-30.2-30.3S415.1,66.2,415.1,85s10.8,30.3,30.2,30.3S475.7,103.8,475.7,85L475.7,85z"/>
<path class="st0" d="M545.7,38.3h31.6l36.3,93.4h-21.5l-8.4-22.2h-44.8l-8.5,22.2h-21.1L545.7,38.3z M545.8,91.5h31l-12.9-33.9h-4.9
	L545.8,91.5z"/>
<path class="st0" d="M633.8,38.3h49.6c23.9,0,35.5,11.2,35.5,32.2c0,15.5-6.8,25.5-20,29.8l23.8,31.5h-24.2l-19.8-27.5h-24.4v27.5
	h-20.6L633.8,38.3z M682.9,86c11.2,0,15.2-6.3,15.2-14.7s-4-14.5-15.2-14.5h-28.6V86H682.9z"/>
<path class="st0" d="M170.4,131.7v-0.1l39.1-48.2l-36.2-45v-0.1H198l24.7,31.9l25.1-31.9h24.3v0.1l-36,44.6l38.7,48.6v0.1h-25
	l-27.2-35.4l-27.8,35.4L170.4,131.7z"/>
<path class="st1" d="M132.1,84.6c0,26.7-21.6,48.3-48.3,48.3V36.2C110.4,36.2,132.1,57.9,132.1,84.6
	C132.1,84.6,132.1,84.6,132.1,84.6z"/>
<path class="st1" d="M35.4,84.6c0,26.7,21.6,48.3,48.3,48.3v36.4C37,168.8-0.5,130.5,0,83.7C0.5,37.7,37.7,0.5,83.7,0v36.2
	C57.1,36.2,35.4,57.9,35.4,84.6L35.4,84.6z"/>
</svg>
