<?xml version="1.0" encoding="utf-8"?>
<!-- Generator: Adobe Illustrator 25.2.3, SVG Export Plug-In . SVG Version: 6.00 Build 0)  -->
<svg version="1.1" id="Layer_1" xmlns="http://www.w3.org/2000/svg" xmlns:xlink="http://www.w3.org/1999/xlink" x="0px" y="0px"
	 viewBox="0 0 1286.5 214.6" style="enable-background:new 0 0 1286.5 214.6;" xml:space="preserve">
<style type="text/css">
	.st0{fill:#00CC66;}
</style>
<path class="st0" d="M168.6,107.2c0,33.8-27.4,61.2-61.2,61.2V45.9C141.1,45.9,168.5,73.4,168.6,107.2z"/>
<path class="st0" d="M46,107.2c0,33.8,27.4,61.2,61.3,61.2v46.2C48,214.6,0,166.5,0,107.3C0,48,48.1,0,107.3,0v45.9
	C73.5,45.9,46.1,73.4,46,107.2z"/>
<path class="st0" d="M235.6,107.8c0,36.3,28.6,61.7,78.8,61.7c15.9,0.1,31.6-3,46.4-9v-28.8c-12.8,6.5-26.4,12-44.6,12
	c-29.2,0-47.4-13.7-47.4-36.1c0-21.9,18.9-36.1,47.7-36.1c18.3,0,31.5,5.5,44.3,11.9v-29c-14.6-5.9-30.2-8.8-46-8.7
	C265.9,45.8,235.6,73.2,235.6,107.8z"/>
<path class="st0" d="M727,87.2c0-24.4-18.4-38.8-53-38.8h-72.4v118.5h33v-40.6H659l36.6,40.6h37.7L693.8,124
	C713.5,119.1,727,106.4,727,87.2z M666,103.4h-31.4V72.3h32.9c18.6,0,26.1,5.5,26.1,15.5C693.6,98.2,684.3,103.4,666,103.4z"/>
<polygon class="st0" points="766.6,73.9 816.4,73.9 816.4,166.9 849.3,166.9 849.3,73.9 899.1,73.9 899.1,48.4 766.6,48.4 "/>
<polygon class="st0" points="945.8,166.9 1060.6,166.9 1060.6,142.7 978.2,142.7 978.2,118 1039.3,118 1039.3,95.9 978.2,95.9 
	978.2,72.6 1060.6,72.6 1060.6,48.4 945.8,48.4 "/>
<polygon class="st0" points="1189.2,106.8 1242.4,48.4 1203.3,48.4 1169.8,88.1 1136.2,48.4 1095.8,48.4 1149,107.1 1094.3,166.9 
	1133.3,166.9 1168.4,127.7 1203.5,166.9 1243.9,166.9 "/>
<path class="st0" d="M555.1,107.7c0,37.4-29.2,62.5-73.5,62.5c-44,0-73.1-25.1-73.1-62.5s29.2-62.5,73.1-62.5
	C525.9,45.2,555.1,70.5,555.1,107.7z M444.4,107.7c0,22.1,16.4,35.1,37.2,35.1c21,0,37.6-13,37.6-35.1c0-22.2-16.6-35.1-37.6-35.1
	C460.7,72.6,444.4,85.4,444.4,107.7z"/>
<path class="st0" d="M1274.7,60.3v-0.4c0-2.5-1.9-4.3-5.3-4.3h-5.9v13.5h2.8v-4.6h3.1l2.3,4.6h3.1l-2.9-5.4
	C1273.6,63.4,1274.7,62,1274.7,60.3 M1266.3,58.1h3.1c1.8,0,2.5,0.6,2.5,1.9v0.1c0,1.2-0.7,1.9-2.5,1.9h-3.1V58.1z"/>
<path class="st0" d="M1268.8,48.4c-7.7,0-14,6.3-14,14s6.3,14,14,14s14-6.3,14-14c0.2-7.6-5.8-13.8-13.4-14
	C1269.2,48.4,1269,48.4,1268.8,48.4 M1268.8,74.5c-6.9,0-11.9-5-11.9-12.1s5-12.1,11.9-12.1s11.9,5,11.9,12.1
	S1275.8,74.5,1268.8,74.5"/>
</svg>
