<?xml version="1.0" encoding="utf-8"?>
<!-- Generator: Adobe Illustrator 25.1.0, SVG Export Plug-In . SVG Version: 6.00 Build 0)  -->
<svg version="1.1" id="Layer_1" xmlns="http://www.w3.org/2000/svg" xmlns:xlink="http://www.w3.org/1999/xlink" x="0px" y="0px"
	 viewBox="0 0 2107.7 214.6" style="enable-background:new 0 0 2107.7 214.6;" xml:space="preserve">
<style type="text/css">
	.st0{fill:#808080;}
	.st1{fill:#00CC66;}
</style>
<path class="st0" d="M1502,158.1v-26.3h0.2c18.6,9,40.9,14.5,59,14.5c17.9,0,26.9-4.7,26.9-12.4c0-8-7.5-10.4-37.6-15
	c-22.8-3.5-48.5-9.9-48.5-33.1c0-19.5,18-38.3,59-38.3c16.5,0,35.5,4.2,49.1,11V85h-0.2c-15-8.5-34.2-13.7-51.1-13.7
	c-18.8,0-26.5,5-26.5,12.2c0,9.9,16.2,10.9,36.9,14.2c22.7,3.7,49.3,9.5,49.3,34.8c0,13.9-8.5,37.6-57.3,37.6
	C1536.1,170,1517.3,164.8,1502,158.1z"/>
<path class="st0" d="M1644.3,108.8c0-37.1,28-61.2,72.4-61.2s72.4,24.1,72.4,61.2s-28,61.2-72.4,61.2
	C1672.3,170,1644.3,145.9,1644.3,108.8z M1759.4,108.8c0-23.6-15.2-37.9-42.5-37.9c-27.3,0-42.8,14.4-42.8,37.9s15.2,37.9,42.5,37.9
	S1759.4,132.4,1759.4,108.8L1759.4,108.8z"/>
<path class="st0" d="M1858,50.4h44.6l51.1,117h-30.3l-11.8-27.7h-63.2l-12,27.7h-29.7L1858,50.4z M1858.2,117h43.7l-18.2-42.4h-7
	L1858.2,117z"/>
<path class="st0" d="M1982.1,50.4h69.9c33.7,0,50,14,50,40.3c0,19.4-9.6,31.9-28.2,37.3l33.5,39.4h-34l-27.8-34.4h-34.4v34.4h-29
	L1982.1,50.4z M2051.3,110.2c15.8,0,21.4-7.9,21.4-18.4s-5.6-18.2-21.4-18.2h-40.2v36.6H2051.3z"/>
<path class="st0" d="M1329.3,167.3v-0.2l55.1-60.3l-51-56.3v-0.2h34.7l34.8,39.9l35.4-39.9h34.2v0.2l-50.7,55.8l54.5,60.8v0.2h-35.2
	l-38.4-44.3l-39.1,44.3L1329.3,167.3z"/>
<g>
	<g>
		<g>
			<path class="st1" d="M168.2,107.6c0,33.8-27.4,61.2-61.2,61.2V46.4C140.7,46.4,168.2,73.8,168.2,107.6z"/>
			<path class="st1" d="M45.7,107.6c0,33.8,27.4,61.2,61.2,61.2V215C47.7,215-0.4,167-0.4,107.7c0-59.3,48-107.3,107.3-107.3v45.9
				C73.1,46.4,45.7,73.8,45.7,107.6z"/>
			<path d="M235.2,108.3c0,36.3,28.6,61.7,78.8,61.7c18.2,0,33.2-3.6,46.4-9v-28.8c-12.8,6.5-26.4,12-44.6,12
				c-29.2,0-47.4-13.7-47.4-36.1c0-21.9,18.9-36.1,47.7-36.1c18.3,0,31.4,5.5,44.3,11.9v-29c-13.3-5.3-27.8-8.7-46-8.7
				C265.5,46.2,235.2,73.6,235.2,108.3z"/>
			<path d="M726.6,87.6c0-24.4-18.4-38.8-53-38.8h-72.3v118.5h33v-40.6h24.4l36.6,40.6h37.7l-39.4-42.9
				C713.1,119.5,726.6,106.9,726.6,87.6z M665.6,103.8h-31.4V72.7h32.9c18.6,0,26.1,5.5,26.1,15.5
				C693.2,98.7,683.9,103.8,665.6,103.8z"/>
			<polygon points="766.2,74.3 816,74.3 816,167.3 848.9,167.3 848.9,74.3 898.7,74.3 898.7,48.9 766.2,48.9 			"/>
			<polygon points="945.4,167.3 1060.2,167.3 1060.2,143.1 977.8,143.1 977.8,118.4 1039,118.4 1039,96.4 977.8,96.4 977.8,73.1 
				1060.2,73.1 1060.2,48.9 945.4,48.9 			"/>
			<polygon points="1188.8,107.2 1242,48.9 1203,48.9 1169.4,88.6 1135.8,48.9 1095.4,48.9 1148.6,107.6 1093.9,167.3 1132.9,167.3 
				1168,128.1 1203.1,167.3 1243.5,167.3 			"/>
			<g>
				<g>
					<path d="M554.7,108.1c0,37.4-29.2,62.5-73.5,62.5c-44,0-73.1-25.1-73.1-62.5c0-37.4,29.2-62.5,73.1-62.5
						C525.5,45.6,554.7,70.9,554.7,108.1z M444,108.1c0,22.1,16.4,35.1,37.2,35.1c21,0,37.6-13,37.6-35.1
						c0-22.2-16.6-35.1-37.6-35.1C460.4,73,444,85.8,444,108.1z"/>
				</g>
			</g>
		</g>
	</g>
	<g>
		<path d="M1274.3,60.8v-0.4c0-2.5-1.9-4.3-5.3-4.3h-5.9v13.5h2.8V65h3.1l2.3,4.6h3.1l-2.9-5.4C1273.3,63.7,1274.3,62.4,1274.3,60.8
			 M1265.9,58.6h3.1c1.8,0,2.5,0.6,2.5,1.9v0.1c0,1.2-0.7,1.9-2.5,1.9h-3.1V58.6z"/>
		<path d="M1268.4,48.9c-7.9,0-14,6-14,14c0,7.9,6,14,14,14c7.9,0,14-6,14-14C1282.4,54.9,1276.4,48.9,1268.4,48.9 M1268.4,74.9
			c-6.9,0-11.9-5-11.9-12.1c0-7.1,5-12.1,11.9-12.1c6.9,0,11.9,5,11.9,12.1C1280.4,69.9,1275.4,74.9,1268.4,74.9"/>
	</g>
</g>
</svg>
