<svg id="Layer_1" data-name="Layer 1" xmlns="http://www.w3.org/2000/svg" viewBox="0 0 1286.46 214.6"><defs><style>.cls-1{fill:#0c6;}</style></defs><path class="cls-1" d="M168.55,107.18a61.25,61.25,0,0,1-61.25,61.25V45.94A61.25,61.25,0,0,1,168.55,107.18Z"/><path class="cls-1" d="M46.05,107.18a61.25,61.25,0,0,0,61.25,61.25V214.6A107.3,107.3,0,0,1,107.3,0V45.94A61.25,61.25,0,0,0,46.05,107.18Z"/><path d="M235.56,107.85c0,36.29,28.6,61.73,78.81,61.73a120.76,120.76,0,0,0,46.35-9V131.82c-12.83,6.52-26.42,12-44.65,12-29.17,0-47.36-13.69-47.36-36.1,0-21.88,18.94-36.12,47.74-36.12,18.31,0,31.45,5.5,44.27,11.91v-29a120,120,0,0,0-46-8.67C265.87,45.77,235.56,73.17,235.56,107.85Z"/><path d="M727,87.22c0-24.37-18.38-38.78-53-38.78H601.64V166.91h33V126.35H659l36.57,40.56h37.69L693.81,124C713.51,119.06,727,106.43,727,87.22Zm-61,16.19H634.6V72.27h32.88c18.56,0,26.14,5.52,26.14,15.48C693.62,98.24,684.34,103.41,666,103.41Z"/><polygon points="766.59 73.88 816.37 73.88 816.37 166.91 849.33 166.91 849.33 73.88 899.12 73.88 899.12 48.44 766.59 48.44 766.59 73.88"/><polygon points="945.84 166.91 1060.56 166.91 1060.56 142.72 978.23 142.72 978.23 117.99 1039.34 117.99 1039.34 95.93 978.23 95.93 978.23 72.63 1060.56 72.63 1060.56 48.44 945.84 48.44 945.84 166.91"/><polygon points="1189.18 106.79 1242.37 48.44 1203.35 48.44 1169.83 88.14 1136.18 48.44 1095.83 48.44 1149.02 107.14 1094.31 166.91 1133.34 166.91 1168.38 127.67 1203.54 166.91 1243.89 166.91 1189.18 106.79"/><path d="M555.07,107.65c0,37.38-29.19,62.47-73.51,62.47-43.95,0-73.14-25.09-73.14-62.47s29.19-62.47,73.14-62.47C525.88,45.18,555.07,70.46,555.07,107.65Zm-110.7,0c0,22.07,16.37,35.06,37.19,35.06,21,0,37.56-13,37.56-35.06,0-22.24-16.56-35.06-37.56-35.06C460.74,72.59,444.37,85.41,444.37,107.65Z"/><path d="M1274.71,60.35v-.44c0-2.5-1.91-4.27-5.3-4.27h-5.89V69.18h2.8V64.62h3.11l2.34,4.56h3.09L1272,63.82a3.52,3.52,0,0,0,2.73-3.47m-8.39-2.21h3.09c1.77,0,2.5.59,2.5,1.92v.14c0,1.18-.73,1.92-2.5,1.92h-3.09Z"/><path d="M1268.82,48.43a14,14,0,1,0,14,14,13.7,13.7,0,0,0-14-14m0,26.05c-6.92,0-11.92-5-11.92-12.07s5-12.07,11.92-12.07,11.93,5,11.93,12.07-5,12.07-11.93,12.07"/></svg>