<?xml version="1.0" encoding="utf-8"?>
<!-- Generator: Adobe Illustrator 24.0.3, SVG Export Plug-In . SVG Version: 6.00 Build 0)  -->
<svg version="1.1" id="Layer_1" xmlns="http://www.w3.org/2000/svg" xmlns:xlink="http://www.w3.org/1999/xlink" x="0px" y="0px"
	 viewBox="0 0 250 350" style="enable-background:new 0 0 250 350;" xml:space="preserve">
<style type="text/css">
	.st0{fill:#F78C28;}
	.st1{clip-path:url(#SVGID_2_);}
	.st2{fill:#FFFFFF;}
	.st3{fill:#633E35;}
	.st4{fill:#231F20;}
	.st5{fill:#0994C3;}
	.st6{fill:#D2D3D4;}
	.st7{fill:#F3723B;}
	.st8{fill:#7C4E3F;}
	.st9{fill:#FFC42A;}
</style>
<path class="st0" d="M149.9,285.2l-0.9,1.6l-0.8,1.3c-0.5,0.8-1.1,1.7-1.6,2.5c-1.1,1.6-2.2,3.2-3.4,4.7c-2.3,3.1-4.8,6-7.5,8.8
	c-5.5,5.8-11.7,10.9-18.5,15.1c-1.7,1.1-3.6,2.1-5.5,3s-3.8,1.9-5.8,2.6s-4.1,1.5-6.2,2.1s-4.2,1.1-6.4,1.5c-4.4,0.8-8.9,1.1-13.3,1
	l-3.3-0.2c-1.1,0-2.2-0.2-3.3-0.4s-2.2-0.2-3.3-0.5l-3.2-0.6c-1.1-0.2-2.1-0.5-3.2-0.8l-3.1-0.9c-1-0.3-1.9-0.7-2.9-1
	s-1.9-0.7-2.9-1.1c-4-1.6-7.8-3.4-11.5-5.6c-8-4.7-14.9-11.2-20.1-18.9c-2.6-3.9-4.8-8.2-6.5-12.6c-1.6-4.2-2.8-8.6-3.5-13.1
	c-0.7-4.1-1.1-8.3-1.2-12.5c-0.1-2-0.1-3.9-0.1-5.7V252v-0.8l0,0c-0.4-11,8.3-20.3,19.3-20.7s20.3,8.3,20.7,19.3c0,0.4,0,0.9,0,1.4
	v1.7l-0.1,1.4l-0.2,2.4c-0.1,1.5-0.2,2.9-0.2,4.2c-0.1,2.4,0,4.8,0.2,7.2c0.3,3.9,1.4,7.6,3.3,11.1c2,3.3,4.6,6.2,7.8,8.4
	c1.9,1.3,3.9,2.4,6,3.4c1.1,0.5,2.3,1,3.4,1.5l1.6,0.6c0.5,0.2,1,0.4,1.6,0.5c4.1,1.2,8.4,1.7,12.6,1.2c1.1-0.1,2.1-0.3,3.2-0.5
	s2.1-0.5,3.2-0.9s2.2-0.8,3.2-1.2s2.2-1,3.2-1.5c4.6-2.4,8.8-5.5,12.5-9c2-1.9,3.9-3.8,5.7-5.9c0.9-1,1.8-2.1,2.6-3.1
	c0.4-0.5,0.8-1.1,1.2-1.6l0.6-0.8c0.1-0.2,0.4-0.6,0.4-0.5c4.1-7.3,13.4-9.9,20.7-5.7c7.3,4.1,9.9,13.4,5.7,20.7
	C150.1,285,150,285.1,149.9,285.2L149.9,285.2z"/>
<g>
	<g>
		<defs>
			<path id="SVGID_1_" d="M149.9,285.2l-0.9,1.6l-0.8,1.3c-0.5,0.8-1.1,1.7-1.6,2.5c-1.1,1.6-2.2,3.2-3.4,4.7
				c-2.3,3.1-4.8,6-7.5,8.8c-5.5,5.8-11.7,10.9-18.5,15.1c-1.7,1.1-3.6,2.1-5.5,3s-3.8,1.9-5.8,2.6s-4.1,1.5-6.2,2.1
				s-4.2,1.1-6.4,1.5c-4.4,0.8-8.9,1.1-13.3,1l-3.3-0.2c-1.1,0-2.2-0.2-3.3-0.4s-2.2-0.2-3.3-0.5l-3.2-0.6c-1.1-0.2-2.1-0.5-3.2-0.8
				l-3.1-0.9c-1-0.3-1.9-0.7-2.9-1s-1.9-0.7-2.9-1.1c-4-1.6-7.8-3.4-11.5-5.6c-8-4.7-14.9-11.2-20.1-18.9c-2.6-3.9-4.8-8.2-6.5-12.6
				c-1.6-4.2-2.8-8.6-3.5-13.1c-0.7-4.1-1.1-8.3-1.2-12.5c-0.1-2-0.1-3.9-0.1-5.7V252v-0.8l0,0c-0.4-11,8.3-20.3,19.3-20.7
				s20.3,8.3,20.7,19.3c0,0.4,0,0.9,0,1.4v1.7l-0.1,1.4l-0.2,2.4c-0.1,1.5-0.2,2.9-0.2,4.2c-0.1,2.4,0,4.8,0.2,7.2
				c0.3,3.9,1.4,7.6,3.3,11.1c2,3.3,4.6,6.2,7.8,8.4c1.9,1.3,3.9,2.4,6,3.4c1.1,0.5,2.3,1,3.4,1.5l1.6,0.6c0.5,0.2,1,0.4,1.6,0.5
				c4.1,1.2,8.4,1.7,12.6,1.2c1.1-0.1,2.1-0.3,3.2-0.5s2.1-0.5,3.2-0.9s2.2-0.8,3.2-1.2s2.2-1,3.2-1.5c4.6-2.4,8.8-5.5,12.5-9
				c2-1.9,3.9-3.8,5.7-5.9c0.9-1,1.8-2.1,2.6-3.1c0.4-0.5,0.8-1.1,1.2-1.6l0.6-0.8c0.1-0.2,0.4-0.6,0.4-0.5
				c4.1-7.3,13.4-9.9,20.7-5.7c7.3,4.1,9.9,13.4,5.7,20.7C150.1,285,150,285.1,149.9,285.2L149.9,285.2z"/>
		</defs>
		<clipPath id="SVGID_2_">
			<use xlink:href="#SVGID_1_"  style="overflow:visible;"/>
		</clipPath>
		<g class="st1">
			<polygon class="st2" points="66.1,271.6 1.4,278.6 1.4,259.6 66.1,259.6 			"/>
			<polygon class="st3" points="66.1,245.6 1.4,242.6 1.4,223.6 66.1,223.6 			"/>
			<polygon class="st2" points="75.8,283.5 27.4,325.8 15.8,304.7 68.6,275.5 			"/>
			<polygon class="st2" points="86.2,290 86.6,355.1 62.8,351.2 75.3,288.3 			"/>
			<polygon class="st2" points="108.2,279 150.3,328.6 129.5,340.9 98.7,284.6 			"/>
			<polygon class="st2" points="124.6,256.2 185.5,281.1 166.9,307.5 116.1,268.2 			"/>
		</g>
	</g>
</g>
<path class="st4" d="M81.6,333.4h-1.7l-3.3-0.2c-0.9,0-1.8-0.1-2.6-0.2c-0.3,0-0.7-0.1-1-0.1h-0.1l-1-0.1c-0.8-0.1-1.7-0.2-2.6-0.4
	l-3.1-0.7c-1.2-0.2-2.3-0.5-3.5-0.9l-3.1-0.9c-0.8-0.3-1.5-0.5-2.2-0.8l-1.4-0.4c-0.8-0.3-1.7-0.6-2.6-1c-4.2-1.6-8.2-3.6-12-5.9
	c-8.6-5-15.9-11.9-21.5-20.1c-2.8-4.2-5.1-8.7-6.9-13.4c-1.7-4.5-2.9-9.1-3.7-13.8c-0.7-4.3-1.1-8.6-1.2-13C8,259.3,8,257.3,8,255.6
	v-2.5v-1.7c-0.4-13.3,9.9-24.4,23.2-24.8c13.3-0.4,24.4,9.9,24.8,23.2c0,0.5,0,1.1,0,1.6l-0.1,3.2l-0.2,2.5
	c-0.1,1.5-0.2,2.8-0.2,4.1c-0.1,2.2,0,4.4,0.2,6.6c0.3,3.3,1.2,6.5,2.8,9.5c1.7,2.8,3.9,5.2,6.7,7c1.7,1.2,3.5,2.2,5.4,3.1h0.1
	c0.6,0.3,1.4,0.6,2.2,0.9l0.9,0.4l1.6,0.6c0.3,0.1,0.7,0.2,1,0.3l0.3,0.1c3.6,1.1,7.3,1.5,11,1.1H88c0.5,0,1-0.1,1.5-0.2
	c0.4-0.1,0.7-0.1,1.1-0.2l0.9-0.2c0.6-0.2,1.2-0.3,1.8-0.5l0.3-0.1c0.6-0.2,1.3-0.4,1.9-0.7l0.9-0.4l0.8-0.3c0.7-0.3,1.4-0.7,2.1-1
	l0.1-0.1c4.2-2.3,8.2-5.1,11.7-8.5c1.9-1.8,3.7-3.6,5.4-5.6l0.1-0.2c12-13.9,23.3-18.2,31-11.6c8.7,7.4,11.1,17.6,6.2,25.9l-0.9,1.6
	l-0.9,1.4c-0.6,0.9-1.1,1.8-1.7,2.6c-1.4,2-2.5,3.5-3.5,4.9c-2.4,3.2-5,6.2-7.7,9.1c-5.7,6.1-12.2,11.4-19.3,15.8
	c-1.7,1.1-3.6,2.1-5.4,3l-1.3,0.6c-1.7,0.8-3.4,1.6-5.3,2.3s-3.8,1.4-5.7,2l-1,0.3l-1.2,0.3c-1.8,0.5-3.6,0.9-5.5,1.2
	C90,333.1,85.8,333.4,81.6,333.4z M80.2,325.4c4.2,0.1,8.3-0.2,12.4-1h0.2c1.6-0.2,3.1-0.6,4.8-1.1l1.8-0.5c1.8-0.6,3.5-1.1,5-1.8
	h0.2c1.6-0.6,3.1-1.3,4.7-2.1l1-0.5c1.8-0.9,3.4-1.8,4.9-2.8c6.5-4,12.5-8.9,17.7-14.5c2.5-2.7,4.9-5.5,7.2-8.4c1-1.3,2-2.6,3.3-4.5
	c0.5-0.8,1-1.5,1.5-2.3l1.7-2.8c3.4-5.8-0.1-12-4.5-15.7c-2.2-1.9-5.8-1.2-10.5,2.1c-3.4,2.5-6.5,5.4-9.2,8.6l-0.2,0.2
	c-1.9,2.2-3.9,4.2-6,6.2c-4,3.8-8.5,7-13.3,9.6c-0.9,0.5-1.8,0.9-2.6,1.3l-1.1,0.5l-0.9,0.4c-0.8,0.3-1.6,0.6-2.5,0.9
	c-0.8,0.3-1.6,0.5-2.4,0.7l-0.9,0.2l-0.5,0.1l-1,0.2c-0.8,0.2-1.6,0.3-2.4,0.4c-4.7,0.5-9.5,0.1-14-1.3c-0.7-0.2-1.3-0.4-1.9-0.6
	l-1.8-0.6l-0.9-0.4c-0.9-0.4-1.8-0.7-2.6-1.1c-2.3-1.1-4.5-2.3-6.5-3.7c-3.7-2.5-6.9-5.8-9.1-9.7c-2.1-3.9-3.4-8.2-3.8-12.6
	c-0.2-2.6-0.3-5.1-0.2-7.7c0-1.2,0.1-2.5,0.2-4.3l0.3-5.4c0-0.3,0-0.7,0-1.1c-0.3-8.8-7.7-15.8-16.5-15.5s-16.1,7.5-15.8,16.4l0,0v2
	v2.5c0,1.6,0,3.5,0.1,5.5c0.1,4,0.5,8,1.1,12c0.7,4.2,1.8,8.3,3.3,12.4c1.6,4.2,3.6,8.1,6.1,11.8c4.9,7.2,11.4,13.2,18.9,17.6
	c3.5,2.1,7.1,3.8,10.9,5.3h0.1c0.7,0.3,1.4,0.5,2.1,0.8l1.4,0.6c0.6,0.2,1.2,0.4,1.8,0.6l3,0.9c0.9,0.3,1.8,0.5,2.8,0.7l3.3,0.7
	c0.6,0.1,1.2,0.2,1.9,0.3l1.1,0.1l1.1,0.1c0.7,0.1,1.3,0.2,1.9,0.2L80.2,325.4z"/>
<path class="st3" d="M186.7,238c0,0,4.2,50-1.6,86c-0.9,5.4-5.6,9.4-11.1,9.4h-5.9c-5.5,0-10.2-4-11.1-9.4
	c-2.3-13.6-6.1-39.5-5.8-61.8C151.2,262.3,179.7,253.6,186.7,238z"/>
<path class="st3" d="M91.1,238c0,0-4.2,50,1.6,86c0.9,5.4,5.6,9.4,11.1,9.4h5.9c5.5,0,10.2-4,11.1-9.4c2.3-13.6,6-39.5,5.8-61.8
	C126.6,262.3,98.1,253.6,91.1,238z"/>
<path class="st2" d="M112.3,323l0.7,7.2c0.1,1.1-0.7,2.1-1.8,2.2s-2.1-0.7-2.2-1.8l0,0c0-0.1,0-0.3,0-0.4l0.7-7.2
	c0.1-0.7,0.8-1.2,1.5-1.2C111.8,321.9,112.3,322.4,112.3,323z"/>
<path class="st2" d="M104.3,323l0.7,7.2c0.1,1.1-0.7,2.1-1.8,2.2s-2.1-0.7-2.2-1.8l0,0c0-0.1,0-0.3,0-0.4l0.7-7.2
	c0.1-0.7,0.8-1.2,1.5-1.2C103.8,321.9,104.3,322.4,104.3,323z"/>
<path class="st2" d="M176.4,323l0.7,7.2c0.1,1.1-0.7,2.1-1.8,2.2s-2.1-0.7-2.2-1.8l0,0c0-0.1,0-0.3,0-0.4l0.7-7.2
	c0.1-0.7,0.8-1.2,1.5-1.2C175.8,321.9,176.3,322.4,176.4,323L176.4,323z"/>
<path class="st2" d="M168.4,323l0.7,7.2c0.1,1.1-0.7,2.1-1.8,2.2s-2.1-0.7-2.2-1.8l0,0c0-0.1,0-0.3,0-0.4l0.7-7.2
	c0.1-0.7,0.8-1.2,1.5-1.2C167.8,321.9,168.3,322.4,168.4,323L168.4,323z"/>
<path class="st3" d="M94.4,173.1c0,0-46.9,42.4-33.7,67.8s41.3-18.8,48.6-33.7S118.6,161.4,94.4,173.1z"/>
<path class="st2" d="M68.5,231.6l-4.8,7.6c-0.6,0.9-1.8,1.2-2.8,0.6c-0.9-0.6-1.2-1.8-0.6-2.8c0.1-0.1,0.1-0.2,0.2-0.2l5.9-6.8
	c0.5-0.5,1.3-0.6,1.9-0.1C68.7,230.4,68.8,231.1,68.5,231.6z"/>
<path class="st2" d="M73.5,237.6l-4.8,7.6c-0.6,0.9-1.8,1.2-2.8,0.6c-0.9-0.6-1.2-1.8-0.6-2.8l0,0c0.1-0.1,0.1-0.2,0.2-0.2l5.9-6.8
	c0.5-0.5,1.3-0.6,1.9-0.1C73.7,236.4,73.8,237.1,73.5,237.6z"/>
<path class="st4" d="M71,252.7c-4,0-9.6-1.8-13.8-9.9c-14.5-27.9,32.5-70.8,34.5-72.6l0.4-0.4l0.5-0.2c11-5.3,17.2-2.5,20.5,0.8
	c8.2,8.3,5.1,27.8-0.2,38.7c-0.2,0.4-21.9,43.5-41.7,43.7H71V252.7z M96.6,176.5C84,188,54.7,220.7,64.2,239.1
	c2.9,5.6,5.8,5.6,6.8,5.6c4.7-0.1,11.6-5.5,19.1-14.9c5.9-7.6,11.1-15.8,15.5-24.4c4.6-9.4,6.3-24.9,1.7-29.6
	C105,173.4,100.3,174.7,96.6,176.5L96.6,176.5z"/>
<path class="st4" d="M174,337.4h-5.9c-7.5,0-13.9-5.4-15.1-12.7c-2.3-13.6-6.1-39.8-5.9-62.5v-2.9l2.8-0.9
	c7.4-2.3,27.9-10.6,33.1-22.1l6.3-14.1l1.4,15.4c0.2,2.1,4.2,51-1.6,87C187.9,332.1,181.5,337.5,174,337.4z M155.2,265.1
	c0.1,21.4,3.6,45.5,5.8,58.2c0.6,3.5,3.6,6.1,7.2,6h5.9c3.5,0,6.6-2.5,7.2-6c4.1-25.2,3.1-57.8,2.3-74.4
	C174.4,257.7,161,263.1,155.2,265.1z"/>
<path class="st4" d="M109.7,337.4h-5.9c-7.5,0.1-13.9-5.3-15.1-12.7c-5.8-36.1-1.8-85-1.6-87l1.3-15.4l6.3,14.1
	c5.2,11.4,25.6,19.8,33.1,22.1l2.8,0.9v2.9c0.2,22.6-3.6,48.9-5.9,62.5C123.5,332.1,117.1,337.4,109.7,337.4z M94.4,249.1
	c-0.9,16.6-1.8,49.2,2.3,74.3c0.6,3.5,3.6,6,7.2,6h5.9c3.5,0,6.6-2.5,7.2-6c2.2-12.8,5.7-36.9,5.8-58.2
	C116.8,263.1,103.3,257.7,94.4,249.1z"/>
<path class="st0" d="M103.9,167.2c0,0-26.4,86.1-7.4,108.7s69.6,22.6,85.1,0S175,167.2,175,167.2S138.8,152.2,103.9,167.2z"/>
<path class="st4" d="M140.1,296.9c-19.4,0-37.1-6.9-46.8-18.4c-8.7-10.3-10.1-32.5-4.3-66.1c2.8-15.6,6.5-31.1,11-46.4l0.5-1.8
	l1.7-0.7c36.1-15.5,72.7-0.7,74.2,0l1.9,0.8l0.5,1.9c0.1,0.2,5.6,22,9.2,46.3c4.9,33.4,3.8,55.4-3.2,65.6
	c-7.4,10.8-22.6,17.7-40.7,18.6C142.8,296.8,141.5,296.9,140.1,296.9z M107.1,170.2c-7.4,24.7-21.7,86.4-7.6,103.1
	c8.6,10.3,26,16.3,44.3,15.4c15.6-0.8,28.5-6.4,34.4-15.1c11.5-16.8-0.4-78.4-6.6-103.4C164.2,167.7,135.2,159,107.1,170.2
	L107.1,170.2z"/>
<path class="st5" d="M127.2,175.8l-4.3,73.1c-0.2,3.2-3,5.7-6.2,5.5c-0.3,0-0.6-0.1-0.9-0.1l-16.4-3.6c-5.3-1.2-8.8-6.2-8.2-11.5
	c2-17.6,6.6-54.3,10.4-64.8L127.2,175.8z"/>
<path class="st4" d="M117,258.5c-0.7,0-1.4-0.1-2.2-0.2l-16.3-3.6c-7.3-1.6-12.2-8.5-11.3-15.9c2.3-20,6.8-55.1,10.7-65.8l1-2.8
	l32.5,1.9l-4.6,77.2C126.5,254.4,122.2,258.5,117,258.5L117,258.5z M104.6,178.5c-2.6,9.4-5.9,31.2-9.4,61.1
	c-0.4,3.4,1.8,6.5,5.1,7.2l16.3,3.6c1,0.2,2-0.4,2.2-1.4c0-0.1,0-0.2,0-0.3l4.2-69.1L104.6,178.5z"/>
<path class="st2" d="M178.9,56.2c0,0,35.6-24.4,49.3-12.6S211,98.2,211,98.2S199.2,69.3,178.9,56.2z"/>
<path class="st6" d="M196.1,61.1c0,0,15-10.8,20.8-5.6s-7.3,24.2-7.3,24.2S204.6,66.9,196.1,61.1z"/>
<path class="st4" d="M210.1,106.3l-2.7-6.6c-0.1-0.3-11.6-27.9-30.6-40.1l-5.1-3.3l5-3.4c6.4-4.3,13.1-8,20.1-11.1
	c15.6-6.8,27-7.2,34-1.3c7.3,6.2,6.4,18.5-2.4,36.5c-4.1,8.2-8.8,16-14.1,23.4L210.1,106.3z M186,56.4
	c12.6,10.1,21.3,25.1,25.6,33.7c3.5-5.4,6.7-10.9,9.6-16.7c6.7-13.7,8.3-23.5,4.4-26.8C217.7,39.8,197.2,49.7,186,56.4z"/>
<path class="st7" d="M105.2,171.4c-1.2,6.6-0.4,13.3,2.4,19.4c3.2,6.9,2.9,11.6,2.4,13.9c-0.3,1.2-0.1,2.4,0.4,3.6
	c1.8,4.1,4,8,6.6,11.7c1,1.3,2.9,1.6,4.2,0.6c0.2-0.1,0.3-0.2,0.4-0.4c3.9-4.4,12.1-12.9,20-14.8c10.8-2.7,38.3-30.5,37.2-43.1
	c0,0-23.4-3.3-38.4-1.9S105,158.9,105.2,171.4z"/>
<path class="st4" d="M119.3,225.2H119c-2.1-0.1-4.1-1.1-5.3-2.9c-2.7-3.9-5.1-8.1-7-12.4c-0.9-1.9-1.1-4-0.6-6.1
	c0.3-1.4,0.7-5.3-2.1-11.4c-3.1-6.7-4.1-14.2-2.8-21.5c0.2-13.3,16-13.7,28.8-14.1c3.4-0.1,6.9-0.2,10.1-0.5
	c15.2-1.5,38.3,1.8,39.3,1.9l3.1,0.4l0.3,3.1c0.8,9.3-9.1,21.7-15.1,28.3c-7,7.6-17.7,17.2-25.1,19c-4.9,1.2-11.5,6.2-18,13.6
	C123.2,224.3,121.3,225.2,119.3,225.2z M109.1,172.3c-1,5.7-0.3,11.5,2.1,16.8c3.7,8,3.3,13.7,2.7,16.5c-0.1,0.4-0.1,0.8,0.1,1.1
	c1.6,3.4,3.4,6.8,5.4,9.9c4.7-5.2,12.9-13,21.2-15.1c9.1-2.2,30.5-24.4,33.7-35.7c-7.2-0.9-22.8-2.4-33.6-1.4
	c-3.4,0.3-7.1,0.4-10.6,0.5c-18,0.5-21,2.4-21,6.5v0.5L109.1,172.3z"/>
<path class="st2" d="M102.7,56.2c0,0-35.5-24.4-49.3-12.6s17.2,54.6,17.2,54.6S82.5,69.3,102.7,56.2z"/>
<path class="st6" d="M85.6,61.1c0,0-15-10.8-20.8-5.6c-5.8,5.2,7.3,24.2,7.3,24.2S77.1,66.9,85.6,61.1z"/>
<path class="st4" d="M71.6,106.3l-4.2-5.8C62.1,93,57.4,85.2,53.3,77c-8.9-18-9.7-30.3-2.5-36.5c7-6,18.4-5.5,34,1.3
	c7,3.1,13.8,6.8,20.2,11.1l5,3.4l-5,3.3C86,71.8,74.4,99.4,74.3,99.7L71.6,106.3z M63.5,44.3c-2.7-0.2-5.3,0.7-7.5,2.3
	c-6.6,5.7,3.5,27.5,14,43.5c4.3-8.6,13.1-23.6,25.7-33.7C87.1,51.3,73.2,44.3,63.5,44.3L63.5,44.3z"/>
<path class="st0" d="M198.5,65.1c-16.9-22.8-54.1-21.6-57.5-21.5c-3.5-0.2-40.6-1.3-57.6,21.5C62.8,92.8,55,119.8,56.2,134.8
	c1.5,17,1.3,39.8,84.4,41h0.5c83.1-1.1,83-23.9,84.5-41C227,119.8,219.1,92.8,198.5,65.1z"/>
<path class="st2" d="M141,112.8c0,0-36.7-0.9-45.1,26.7s9.3,36,45.4,36.3s58-14.3,45.7-39.1S141,112.8,141,112.8z"/>
<path class="st4" d="M141.4,137.4c0,0,7.9,0.2,9.6-5.7c1.7-5.9-2-7.7-9.7-7.8s-12.4,3-9.8,8.4C134.2,137.7,141.4,137.4,141.4,137.4z
	"/>
<path class="st7" d="M109.3,121.6l-0.6,0.6l-0.7,0.7c-0.5,0.5-1,0.9-1.4,1.4c-0.9,1-1.9,2-2.8,3c-1.8,2.1-3.4,4.2-4.9,6.5
	c-1.4,2.2-2.6,4.5-3.6,7c-0.9,2.4-1.4,4.9-1.6,7.4c-0.1,2.6,0.4,5.2,1.3,7.6c0.5,1.3,1.1,2.5,1.8,3.6c0.8,1.2,1.6,2.3,2.5,3.4
	c3.8,4.5,8.6,7.9,14.1,10.2c0.8,0.3,1.1,1.2,0.8,2c-0.3,0.8-1.2,1.1-2,0.8l-0.2-0.1c-5.4-2.8-11-5.5-16-9.6c-1.3-1-2.4-2.2-3.6-3.4
	c-1.1-1.3-2.1-2.6-3-4.1c-1.9-3-3.1-6.3-3.7-9.8s-0.5-7.1,0.2-10.6c0.6-3.4,1.7-6.6,3.1-9.8c1.4-3,3.1-6,5-8.7c0.9-1.4,1.9-2.7,3-4
	c0.5-0.6,1.1-1.3,1.6-1.9c0.3-0.3,0.6-0.6,0.9-0.9s0.6-0.6,1-1l0.1-0.1c2.6-2.5,6.7-2.4,9.2,0.2s2.4,6.7-0.2,9.2L109.3,121.6z"/>
<path class="st7" d="M182.9,112.1c0.4,0.4,0.7,0.7,1,1s0.6,0.6,0.9,0.9c0.6,0.6,1.1,1.3,1.6,1.9c1.1,1.3,2.1,2.6,3,4
	c1.9,2.7,3.6,5.7,5,8.7c1.4,3.1,2.5,6.4,3.1,9.8c0.7,3.5,0.8,7,0.2,10.5s-1.8,6.8-3.7,9.8c-0.9,1.4-1.9,2.8-3,4.1
	c-1.1,1.2-2.3,2.3-3.5,3.4c-5,4.2-10.6,6.9-16.1,9.6c-0.7,0.4-1.6,0.1-2-0.7s-0.1-1.6,0.7-2h0.1c5.4-2.2,10.3-5.7,14.1-10.2
	c0.9-1.1,1.7-2.2,2.5-3.4c0.7-1.2,1.3-2.4,1.8-3.6c0.9-2.4,1.4-5,1.3-7.6c-0.1-2.5-0.7-5.1-1.6-7.4c-1-2.4-2.2-4.8-3.6-7
	c-1.5-2.3-3.1-4.4-4.9-6.5c-0.9-1-1.8-2-2.8-3c-0.5-0.5-0.9-1-1.4-1.4l-0.7-0.7l-0.6-0.6c-2.8-2.3-3.1-6.4-0.8-9.2s6.4-3.1,9.2-0.8
	l0,0l0.3,0.2L182.9,112.1z"/>
<path class="st2" d="M198.7,107.5c0.4,0.5,0.6,0.8,0.9,1.2s0.5,0.7,0.8,1.1c0.5,0.7,1,1.4,1.4,2.1c0.9,1.4,1.7,2.9,2.5,4.4
	c1.6,3,2.9,6.1,3.9,9.4c1.1,3.3,1.7,6.7,2.1,10.2c0.3,3.5,0.1,7.1-0.6,10.5c-0.7,3.4-1.9,6.7-3.6,9.8l-1.3,2.2c-0.5,0.7-1,1.4-1.5,2
	c-0.5,0.7-1,1.3-1.6,1.9c-0.5,0.6-1.1,1.2-1.7,1.8c-4.7,4.6-10.2,7.7-15.4,10.8l0,0c-0.9,0.6-2,0.3-2.6-0.6c-0.6-0.9-0.3-2,0.6-2.6
	c0,0,0.1,0,0.1-0.1l0.1-0.1c5.2-2.5,9.7-6.4,12.9-11.2c1.5-2.2,2.7-4.7,3.4-7.3c0.7-2.5,1-5.1,0.8-7.6c-0.4-5.1-1.9-10.1-4.4-14.6
	c-1.2-2.3-2.6-4.6-4.2-6.7c-0.8-1.1-1.6-2.1-2.4-3.2c-0.4-0.5-0.8-1-1.2-1.5l-0.6-0.7c-0.2-0.2-0.4-0.5-0.5-0.6
	c-3.2-3-3.4-8.1-0.3-11.3c3-3.2,8.1-3.4,11.3-0.3l0,0c0.2,0.2,0.4,0.4,0.6,0.7L198.7,107.5z"/>
<path class="st2" d="M96.2,118.1c-0.1,0.1-0.3,0.4-0.5,0.6l-0.6,0.7c-0.4,0.5-0.8,1-1.2,1.5c-0.8,1-1.6,2.1-2.4,3.2
	c-1.5,2.2-2.9,4.4-4.2,6.7c-2.5,4.5-4.1,9.5-4.4,14.6c-0.1,2.6,0.2,5.2,0.8,7.6c0.7,2.6,1.9,5.1,3.4,7.3c3.3,4.8,7.7,8.7,12.9,11.2
	c0.9,0.4,1.3,1.6,0.9,2.5s-1.6,1.3-2.5,0.9l-0.2-0.1l0,0c-5.3-3.2-10.7-6.3-15.4-10.8c-0.6-0.6-1.2-1.2-1.7-1.8
	c-0.6-0.6-1.1-1.2-1.6-1.9s-1-1.3-1.5-2l-1.3-2.2c-1.7-3.1-2.9-6.4-3.6-9.8c-0.7-3.5-0.9-7-0.6-10.5s1-6.9,2-10.2
	c1-3.2,2.3-6.4,3.9-9.4c0.8-1.5,1.6-3,2.5-4.4c0.5-0.7,0.9-1.4,1.4-2.1c0.2-0.3,0.5-0.7,0.8-1.1s0.5-0.7,0.9-1.2l0.4-0.4
	c2.8-3.4,7.9-3.8,11.3-1s3.8,7.9,1,11.3C96.6,117.7,96.4,117.9,96.2,118.1z"/>
<circle class="st4" cx="178.9" cy="116.8" r="6.5"/>
<path class="st2" d="M168.8,95.7c0,0-12.6-2.7-11,5s7.6,11.6,11,5.1S173.1,97.7,168.8,95.7z"/>
<path class="st4" d="M119.9,187.8c2.1,0.2,4.4,0.3,6.6,0.3s4.5,0,6.7-0.2c4.4-0.2,8.8-1.2,12.8-3l0,0c0.6-0.3,1.4-0.1,1.7,0.6
	c0.3,0.6,0.1,1.2-0.4,1.6c-2,1.5-4.1,2.7-6.4,3.6c-2.2,1-4.5,1.8-6.8,2.4c-2.3,0.7-4.7,1.2-7,1.7s-4.7,0.8-7.3,1.1
	c-2.2,0.2-4.2-1.4-4.4-3.6c-0.2-2.2,1.4-4.2,3.6-4.4C119.4,187.8,119.6,187.8,119.9,187.8L119.9,187.8z"/>
<path class="st2" d="M115.6,95.7c0,0,12.6-2.7,11,5s-7.7,11.6-11,5.1S111.2,97.7,115.6,95.7z"/>
<path class="st4" d="M136.7,179.8v-0.1c-80.9-1.9-82.9-25.8-84.3-43.3l-0.1-1.2c-1.3-14.4,5.3-42,27.9-72.4
	C98,38.7,135.8,39.4,141,39.6c5.1-0.2,42.9-0.9,60.7,23.1c22.6,30.5,29.2,58.1,28,72.4l-0.1,1.2c-1.5,17.6-3.5,41.5-84.3,43.3v0.1
	h-4.2L136.7,179.8z M138,47.5c-6.7,0-13.4,0.8-19.9,2.2c-14.4,3-25,9-31.4,17.8c-19.9,26.8-27.6,53-26.4,67l0.1,1.2
	c0.7,8.4,1.4,16.3,10.6,22.9c11.8,8.4,34.6,12.7,69.8,13.2h0.4c35.2-0.5,58-4.8,69.8-13.2c9.3-6.6,9.9-14.5,10.6-22.9l0.1-1.2
	c1.2-14-6.5-40.2-26.4-67l0,0c-6.5-8.8-17.1-14.8-31.4-17.8c-7.5-1.6-15.1-2.2-22.7-2h-0.4C140.3,47.6,139.3,47.5,138,47.5z"/>
<path class="st3" d="M174.3,196.9c0,0,25.9-57.6,54.3-52.8s-5.3,45-17.2,56.6S170.6,223.5,174.3,196.9z"/>
<path class="st2" d="M220.6,154.8l4.7-7.7c0.6-0.9,1.9-1.1,2.8-0.5c0.8,0.6,1.1,1.7,0.6,2.5l-0.2,0.2l-5.8,7
	c-0.4,0.6-1.3,0.7-1.9,0.2C220.4,156.1,220.2,155.3,220.6,154.8L220.6,154.8z"/>
<path class="st2" d="M227.2,157.7l4.9-8.2c0.7-1,2-1.2,3-0.5c0.9,0.6,1.1,1.7,0.7,2.7l-0.2,0.3l-6.1,7.4c-0.5,0.6-1.4,0.7-2,0.2
	C227,159.1,226.8,158.3,227.2,157.7L227.2,157.7z"/>
<path class="st4" d="M243,150.2v0.1c5.9,18.9-28.5,52.8-28.8,53.1c-8.7,8.5-26.4,17.4-36.8,12.1c-4.1-2.1-8.7-7.1-7-19.3l0.1-0.6
	l0.2-0.5c1.1-2.5,27.6-60.4,58.6-55.1C238.3,141.7,241.7,146.4,243,150.2z M178.6,205.3c0.4,1.3,1.2,2.5,2.5,3.2
	c5.8,3,20-3.4,27.6-10.7c6.8-6.8,12.9-14.2,18.3-22.2c6.7-10,9.7-18.3,8.3-22.8c-0.3-0.9-1.2-3.7-7.4-4.7
	c-20.5-3.5-42.6,34.4-49.7,50C177.8,200.4,177.9,202.9,178.6,205.3L178.6,205.3z"/>
<g>
	<path class="st5" d="M151.2,175.8l4.4,73.1c0.2,3.2,3,5.7,6.2,5.5c0.3,0,0.6-0.1,0.9-0.1l16.3-3.6c5.3-1.2,8.8-6.2,8.2-11.5
		c-2-17.6-6.6-54.3-10.4-64.8L151.2,175.8z"/>
	<path class="st4" d="M161.4,258.5c-5.2,0-9.5-4.1-9.9-9.3l-4.6-77.2l32.5-1.9l1,2.8c3.9,10.6,8.4,45.8,10.7,65.8
		c0.9,7.4-4,14.3-11.3,15.9l-16.3,3.6C162.8,258.4,162.1,258.5,161.4,258.5z M155.4,179.6l4.1,69.1c0.1,1,1,1.8,2,1.8
		c0.1,0,0.2,0,0.3,0l16.3-3.6c3.3-0.7,5.5-3.8,5.1-7.2c-3.4-29.9-6.8-51.7-9.4-61.1L155.4,179.6z"/>
	
		<rect x="163.9" y="230.4" transform="matrix(0.9815 -0.1915 0.1915 0.9815 -41.7446 36.8745)" class="st4" width="12.1" height="8"/>
</g>
<rect x="103.9" y="228.4" transform="matrix(0.1915 -0.9815 0.9815 0.1915 -142.9285 295.4843)" class="st4" width="8" height="12.1"/>
<circle class="st4" cx="104.9" cy="116.8" r="6.5"/>
<path class="st4" d="M156.9,161.1c-2.4,0-4.8-0.5-7-1.5c-1.8-0.8-2.6-2.9-1.8-4.6s2.9-2.6,4.6-1.8c5,2.3,11,0,13.2-5c0,0,0,0,0-0.1
	c0.8-1.8,2.9-2.6,4.6-1.8s2.6,2.9,1.8,4.6C169.7,157.1,163.6,161.1,156.9,161.1L156.9,161.1z"/>
<path class="st4" d="M177.8,149.6h-0.2c-1.9-0.1-3.4-1.7-3.3-3.7c0.1-1.5-1.8-1.8-2.1-1.8c-1.9-0.2-3.4-1.9-3.2-3.8
	c0.2-1.9,1.9-3.4,3.8-3.2c3.6,0.3,8.8,3,8.5,9.1C181.2,148.2,179.7,149.6,177.8,149.6z"/>
<path class="st8" d="M141.3,50.8c0,0-15,0.6-19-7.4c0,0,2.5-31.3,11.8-32.6c0,0,2.3-0.9,3.8,2.4s3.5,3.2,4.5,2.3
	c2.3-2,2.4-5.1,6.2-4.8c3.8,0.3,9.2,8.3,11.3,33.1C159.9,43.8,156,51.7,141.3,50.8z"/>
<path class="st8" d="M141.1,57.2c0,0,37.9-1.4,37.7-19.6c0,0,0.4-3.6-28.9,4.3c-5.4,1.5-11.1,1.6-16.6,0.3l-10.6-2.4
	c0,0-17.5-5.3-19.3-2.1C101.6,40.9,110.7,57.2,141.1,57.2z"/>
<path class="st4" d="M141.1,61.2L141.1,61.2c-14.7,0-32.8-4.4-40.1-16.8c-2-3.4-2.4-6.5-1.1-8.8c0.9-1.6,3-5.3,19.4-1
	c2.6-17.2,7.2-26.5,13.9-27.7c2.2-0.6,5.7,0,7.9,3.8c1.6-2.7,4.6-4.3,7.7-4c6.8,0.4,11.6,10,14.1,27.9c13.8-2.9,16.7-1.8,18.4-0.2
	c0.9,0.8,1.5,2,1.5,3.3c0.1,6.6-3.7,15.5-21.7,20.5C154.6,59.9,148,60.9,141.1,61.2L141.1,61.2z M108,40.7
	c2.7,4.5,12.4,12.5,33,12.6c8-0.3,29.2-3.3,33.1-12.4c-4.6,0.5-9.2,1.3-13.8,2.5l-4.4,1l-0.5-4.5c-2.3-20.9-6.7-24.7-7.4-25.2l0,0
	c-0.2,0.2-0.5,0.6-0.7,0.9c-0.7,1.1-1.5,2.1-2.4,2.9c-1.4,1.2-3.4,1.7-5.2,1.3c-1.6-0.3-3.8-1.5-5.5-5c-1.8,1.1-5.6,8.1-7.6,25.3
	l-0.6,4.7l-4.6-1.4C117.1,42.2,112.6,41.2,108,40.7z"/>
<path class="st4" d="M141.4,39.7c-6.7,0-13.3-0.8-19.8-2.3l2-7.7c0.2,0,18.3,4.7,34.6-0.3l2.3,7.7C154.3,38.9,147.9,39.8,141.4,39.7
	z"/>
<circle class="st9" cx="141" cy="35.5" r="10.9"/>
<path class="st4" d="M146.8,36.5c-0.3,0-0.5,0.1-0.7,0.3c-0.1,0.2-0.2,0.5-0.2,0.8c0,0.2,0,0.5,0.1,0.7c0,0.2,0.1,0.5,0.1,0.8
	s0.1,0.5,0.1,0.8s0.1,0.5,0.1,0.8c0,0.4-0.1,0.8-0.2,1.2c-0.1,0.4-0.3,0.7-0.6,0.9c-0.3,0.3-0.6,0.5-1,0.6c-0.5,0.2-1,0.2-1.5,0.2
	h-0.4v-1.1c0-0.1,0-0.1,0-0.2c0-0.1,0.1-0.1,0.1-0.2c0.1,0,0.1-0.1,0.2-0.1h0.2c0.3,0,0.6-0.1,0.8-0.3c0.2-0.3,0.3-0.6,0.2-1
	c0-0.3,0-0.6,0-0.9c0-0.3-0.1-0.5-0.1-0.8s0-0.5-0.1-0.8s0-0.5,0-0.7s0-0.4,0.1-0.6s0.1-0.4,0.2-0.5c0.1-0.2,0.3-0.3,0.4-0.4
	c0.2-0.1,0.4-0.2,0.6-0.3c-0.2-0.1-0.4-0.2-0.6-0.3c-0.2-0.1-0.3-0.3-0.4-0.4c-0.1-0.2-0.2-0.3-0.2-0.5c-0.1-0.2-0.1-0.4-0.1-0.6
	s0-0.5,0-0.7s0.1-0.5,0.1-0.8s0.1-0.5,0.1-0.8s0-0.6,0-0.9s-0.1-0.6-0.2-0.9c-0.2-0.2-0.5-0.3-0.8-0.3h-0.2c-0.1,0-0.1-0.1-0.2-0.1
	c-0.1,0-0.1-0.1-0.1-0.1c0-0.1,0-0.1,0-0.2V28h0.4c0.5,0,1,0.1,1.5,0.2c0.4,0.1,0.7,0.3,1,0.6c0.3,0.3,0.5,0.6,0.6,0.9
	c0.1,0.4,0.2,0.8,0.2,1.2c0,0.3,0,0.5-0.1,0.8c0,0.2-0.1,0.5-0.1,0.8S146,33,146,33.3c0,0.2,0,0.5-0.1,0.7c0,0.1,0,0.3,0.1,0.4
	c0,0.1,0.1,0.2,0.1,0.4c0.1,0.1,0.2,0.2,0.3,0.2c0.1,0.1,0.3,0.1,0.4,0.1L146.8,36.5z"/>
<path class="st4" d="M135.2,35c0.3,0,0.5-0.1,0.7-0.3c0.1-0.2,0.2-0.5,0.2-0.8c0-0.2,0-0.5-0.1-0.7c0-0.2-0.1-0.5-0.1-0.8
	s-0.1-0.5-0.1-0.8s0-0.5,0-0.8c0-0.4,0.1-0.8,0.2-1.2c0.1-0.4,0.3-0.7,0.6-0.9c0.3-0.3,0.6-0.5,1-0.6c0.5-0.2,1-0.2,1.5-0.2h0.4V29
	c0,0.1,0,0.2-0.1,0.2c0,0.1-0.1,0.1-0.1,0.1c-0.1,0-0.1,0.1-0.2,0.1H139c-0.3,0-0.6,0.1-0.8,0.3c-0.2,0.3-0.3,0.6-0.2,0.9
	c0,0.3,0,0.6,0,0.9s0.1,0.5,0.1,0.8s0.1,0.5,0.1,0.8c0,0.2,0,0.5,0,0.7s0,0.4-0.1,0.6s-0.1,0.4-0.3,0.5c-0.1,0.2-0.3,0.3-0.4,0.4
	c-0.2,0.1-0.4,0.2-0.6,0.3c0.2,0.1,0.4,0.2,0.6,0.3c0.2,0.1,0.3,0.3,0.4,0.4c0.1,0.2,0.2,0.3,0.3,0.5s0.1,0.4,0.1,0.6s0,0.5,0,0.7
	s-0.1,0.5-0.1,0.8s0,0.5-0.1,0.8c0,0.3,0,0.6,0,0.9c0,0.3,0.1,0.6,0.2,0.9c0.2,0.2,0.5,0.3,0.8,0.3h0.2c0.1,0,0.1,0.1,0.2,0.1
	c0.1,0,0.1,0.1,0.1,0.2c0,0.1,0.1,0.1,0.1,0.2v1.1h-0.4c-0.5,0-1-0.1-1.5-0.2c-0.4-0.1-0.7-0.3-1-0.6s-0.5-0.6-0.6-0.9
	c-0.1-0.4-0.2-0.8-0.2-1.2c0-0.3,0-0.5,0-0.8c0-0.2,0.1-0.5,0.1-0.8s0.1-0.5,0.1-0.8c0-0.2,0-0.5,0-0.7c0-0.1,0-0.3-0.1-0.4
	c0-0.1-0.1-0.2-0.1-0.4c-0.1-0.1-0.2-0.2-0.3-0.2c-0.1-0.1-0.3-0.1-0.4-0.1L135.2,35z"/>
</svg>
