<?xml version="1.0" encoding="utf-8"?>
<!-- Generator: Adobe Illustrator 25.2.3, SVG Export Plug-In . SVG Version: 6.00 Build 0)  -->
<svg version="1.1" id="Layer_1" xmlns="http://www.w3.org/2000/svg" xmlns:xlink="http://www.w3.org/1999/xlink" x="0px" y="0px"
	 viewBox="0 0 1311.4 239.8" style="enable-background:new 0 0 1311.4 239.8;" xml:space="preserve">
<style type="text/css">
	.st0{fill:#FFFFFF;}
	.st1{fill:#FA582D;}
</style>
<g>
	<path class="st0" d="M557.1,44c-16.9,0-34.5,4.6-56.3,16.3l12.1,29.9c18.9-10.6,34.5-15.2,46-15.2c13,0,18.7,4.8,18.7,11.2v0.4
		c0,4.4-3.5,6.8-12.1,7.7l-15,1.5c-37.4,4-52.8,20.2-52.8,42.7v1.5c0,21.3,17.6,38.1,42.5,38.1c16.4,0,30.6-6.9,39.2-19.1l2.8,16.9
		h33.9V99.2C616.1,62.9,595.2,44,557.1,44 M553.8,148.9c-12.5,0-18.5-4.8-18.5-12.3v-0.4c0-6.6,3.7-11.4,17.4-13.4l5.9-0.9
		c8.7-1.2,14-2.8,18.9-5.8v9.7C577.6,140.6,568.4,148.9,553.8,148.9"/>
	<polygon class="st1" points="238.7,44.9 195.3,1.5 152,44.9 173.5,66.4 64.9,175.1 108.2,218.4 151.5,175.1 130,153.5 	"/>
	
		<rect x="-0.8" y="46.9" transform="matrix(0.7071 -0.7071 0.7071 0.7071 -32.5666 76.444)" class="st1" width="153.7" height="61.3"/>
	
		<rect x="150.7" y="111.8" transform="matrix(0.7071 -0.7071 0.7071 0.7071 -34.0599 202.615)" class="st1" width="153.7" height="61.3"/>
	<rect x="638.1" class="st0" width="38.5" height="176"/>
	<path class="st0" d="M433.1,44c-17.5,0-31.5,7.7-39.3,19.9l-2.9-17.7H357V220h38.5v-60.2c7.3,11.3,21.2,18.4,37.6,18.4
		c30.8,0,55.9-27.3,55.9-64.9v-4.4C489,71.3,463.9,44,433.1,44 M449.4,112.2c0,19.8-10.3,34.1-27.5,34.1
		c-17.2,0-27.5-14.3-27.5-34.1V110c0-19.8,10.3-34.1,27.5-34.1c17.2,0,27.5,14.3,27.5,34.1V112.2z"/>
	<path class="st0" d="M1195.9,44c-39.4,0-67.1,27.3-67.1,64.9v4.4c0,37.6,27.7,64.9,67.1,64.9c39.4,0,67.1-27.3,67.1-64.9v-4.4
		C1263,71.3,1235.3,44,1195.9,44 M1223.4,112.2c0,19.8-10.3,34.1-27.5,34.1c-17.2,0-27.5-14.3-27.5-34.1V110
		c0-19.8,10.3-34.1,27.5-34.1c17.2,0,27.5,14.3,27.5,34.1V112.2z"/>
	<path class="st0" d="M1299.3,51.9v-0.7c0-3.7-2.9-6.4-7.9-6.4h-8.8v20.2h4.2v-6.8h4.6l3.5,6.8h4.6l-4.3-8
		C1297.8,56.3,1299.3,54.4,1299.3,51.9 M1286.7,48.6h4.6c2.6,0,3.7,0.9,3.7,2.9v0.2c0,1.8-1.1,2.9-3.7,2.9h-4.6V48.6z"/>
	<path class="st0" d="M1290.5,34.1c-11.9,0-20.9,9-20.9,20.9s9,20.9,20.9,20.9c11.9,0,20.9-9,20.9-20.9S1302.4,34.1,1290.5,34.1
		 M1290.5,73c-10.3,0-17.8-7.5-17.8-18s7.5-18,17.8-18c10.3,0,17.8,7.5,17.8,18S1300.8,73,1290.5,73"/>
	<rect x="977" class="st0" width="38.5" height="176"/>
	<path class="st0" d="M1091.4,146.3c-11.2,0-15.4-5.5-15.4-17.4v-53h45.3V46.2H1076V16.5l-38.5,5.7v110.4
		c0,30.1,15.4,45.5,46.2,45.5c13.6,0,29.7-4.2,42.9-11.7l-11-27.3C1107.9,143.4,1097.1,146.3,1091.4,146.3"/>
	<path class="st0" d="M896.1,44c-16.9,0-34.5,4.6-56.3,16.3l12.1,29.9c18.9-10.6,34.5-15.2,46-15.2c13,0,18.7,4.8,18.7,11.2v0.4
		c0,4.4-3.5,6.8-12.1,7.7l-15,1.5c-37.4,4-52.8,20.2-52.8,42.7v1.5c0,21.3,17.6,38.1,42.5,38.1c16.4,0,30.6-6.9,39.2-19.1l2.8,16.9
		H955V99.2C955,62.9,934.2,44,896.1,44 M892.8,148.9c-12.5,0-18.5-4.8-18.5-12.3v-0.4c0-6.6,3.7-11.4,17.4-13.4l5.9-0.9
		c8.7-1.2,14-2.8,18.9-5.8v9.7C916.6,140.6,907.3,148.9,892.8,148.9"/>
	<path class="st0" d="M760.8,44c-39.4,0-67.1,27.3-67.1,64.9v4.4c0,37.6,27.7,64.9,67.1,64.9s67.1-27.3,67.1-64.9v-4.4
		C827.9,71.3,800.2,44,760.8,44 M788.3,112.2c0,19.8-10.3,34.1-27.5,34.1s-27.5-14.3-27.5-34.1V110c0-19.8,10.3-34.1,27.5-34.1
		s27.5,14.3,27.5,34.1V112.2z"/>
	<polygon class="st0" points="918.4,207.2 928.2,207.2 941.9,225.1 942,225.1 942,207.2 951,207.2 951,238.8 941.5,238.8 
		927.6,220.4 927.4,220.4 927.4,238.8 918.4,238.8 	"/>
	<polygon class="st0" points="963.1,207.2 990.8,207.2 991.1,214.9 972.5,214.9 972.5,219.2 987.1,219.2 987.1,226.2 972.5,226.2 
		972.5,231.1 991.7,231.1 991.3,238.8 963.1,238.8 	"/>
	<polygon class="st0" points="1010.9,215.3 999.8,215.3 1000.2,207.2 1031.2,207.2 1031.6,215.3 1020.5,215.3 1020.5,238.8 
		1010.9,238.8 	"/>
	<polygon class="st0" points="1039.2,207.2 1049.3,207.2 1054.5,229.1 1055,229.1 1061.7,207.2 1070.9,207.2 1077.5,229.1 
		1078,229.1 1083.1,207.2 1092.8,207.2 1084.4,238.8 1072,238.8 1066.2,219.7 1065.9,219.7 1060,238.8 1047.6,238.8 	"/>
	<path class="st0" d="M1099.7,223c0-10.3,7-16.8,18.1-16.8c11.1,0,18.1,6.5,18.1,16.8c0,10.3-7,16.8-18.1,16.8
		C1106.7,239.8,1099.7,233.3,1099.7,223 M1126.4,223c0-5.5-3.2-8.7-8.6-8.7c-5.5,0-8.6,3.3-8.6,8.7c0,5.5,3.2,8.7,8.6,8.7
		C1123.2,231.7,1126.4,228.5,1126.4,223"/>
	<path class="st0" d="M1146.2,207.2h18.5c8.4,0,12.5,4,12.5,11.4c0,5.1-2.1,8.5-6.2,10.1l7.5,10.2h-10.8l-5.8-8.3h-6.2v8.3h-9.5
		V207.2z M1163.4,223.1c3.2,0,4.3-1.8,4.3-4.2s-1.1-4.1-4.3-4.1h-7.7v8.3H1163.4z"/>
	<polygon class="st0" points="1189.5,207.2 1199,207.2 1199,218.8 1202.9,218.8 1212.2,207.2 1222.8,207.2 1222.9,207.2 
		1210.8,222.4 1223.6,238.8 1223.5,238.8 1212.4,238.8 1202.8,226.7 1199,226.7 1199,238.8 1189.5,238.8 	"/>
	<path class="st0" d="M1230.8,236.7v-8.7h0c5.3,2.7,10.4,4,14.9,4c3.4,0,5.1-0.8,5.1-2.4c0-1.6-1.1-2-7.9-3.1
		c-7.4-1.2-12.3-3.4-12.3-9.8c0-5.9,5.2-10.5,15.4-10.5c4.1,0,8.3,0.9,12.3,2.5v8.6l0,0c-3.8-2.2-8.8-3.5-12.9-3.5
		c-3.6,0-5.1,0.9-5.1,2.3c0,1.9,2.2,2,7.8,3c7.4,1.3,12.3,3.3,12.3,10c0,5.2-3.9,10.4-15.1,10.4
		C1239.8,239.7,1235.5,238.6,1230.8,236.7"/>
</g>
</svg>
