<?xml version="1.0" encoding="utf-8"?>
<!-- Generator: Adobe Illustrator 24.0.3, SVG Export Plug-In . SVG Version: 6.00 Build 0)  -->
<svg version="1.1" id="Layer_1" xmlns="http://www.w3.org/2000/svg" xmlns:xlink="http://www.w3.org/1999/xlink" x="0px" y="0px"
	 viewBox="0 0 1266 255.2" style="enable-background:new 0 0 1266 255.2;" xml:space="preserve">
<style type="text/css">
	.st0{fill:#00C0E8;}
	.st1{fill:#808080;}
</style>
<g>
	<path d="M776,98.4c-27.7-4.1-33.8-7.2-33.8-13.4c0-6.2,7.8-11.4,26.3-11.4c14.5,0,29.5,3.6,42.7,9c3.4,1.3,6.5,2.8,9.6,4.2V59.6
		c-0.2-0.1-0.4-0.2-0.7-0.3c-14.5-6.2-29.9-9.5-50.1-9.5c-36.1,0-59.9,16.1-59.9,36.7c0,22.9,19.3,31,57.3,36.4
		c26.7,3.8,33.3,6.7,33.3,13.4c0,7.5-9.8,12.4-31.5,12.4c-14,0-30.6-3.9-44.9-9.6c-3.5-1.4-8.2-3.6-12-5.6v27.2
		c1.1,0.5,2.3,1,3.1,1.3c16.1,6.5,34.4,10.5,55.3,10.5c35.1,0,62.2-14.2,62.2-37.5C832.9,112.1,814.8,103.9,776,98.4z"/>
	<path d="M334,52.2c32.8,0,51.2,15.6,51.2,40c0,25.9-20.4,40.9-52.8,40.9h-35.6v37H266V52.2H334z M296.8,109.4H328
		c20,0,26.6-6.4,26.6-16.6c0-9.9-7.3-16.6-25.1-16.6h-32.6V109.4z"/>
	<path d="M467.7,170.2h-30.8V52.2h77.2c32.4,0,49.6,14.3,49.6,38.6c0,19.1-12.6,31.7-31,36.7l36.8,42.7h-35.2l-34.2-40.4h-32.4
		V170.2z M467.7,106.9h39c17.2,0,25.9-5.1,25.9-15.6c0-9.9-7.1-15.4-24.4-15.4h-40.4V106.9z"/>
	<path d="M654.6,52.2v117.9h-31V52.2H654.6z"/>
	<path d="M926.6,52.2l41.3,80.2h0.5l40.9-80.2h45v117.9h-30.5v-88h-0.4L978,170.3h-22l-45.5-88.2h-0.4v88h-28.5V52.2H926.6z"/>
	<path d="M1211.1,149.1h-67.7l-10.4,21.1H1101l60-118.7h33.6l60.2,118.7h-33.3L1211.1,149.1z M1154.1,127.5h46.4l-23-46.9h-0.4
		L1154.1,127.5z"/>
	<polygon class="st0" points="127.6,170.2 127.6,52 189.3,170.2 	"/>
	<polygon class="st0" points="127.6,52 65.9,170.2 127.6,170.2 127.6,255.2 0,127.6 65.3,62.3 75.6,52 127.6,0 	"/>
	<g>
		<polygon points="1241.3,52 1251.1,52 1251.1,54.5 1247.8,54.5 1247.8,64.3 1244.7,64.3 1244.7,54.5 1241.3,54.5 		"/>
		<path d="M1266,52v12.3h-2.8v-7c0-0.1,0-0.2,0-0.4l-2.8,5.5c-0.1,0.2-0.3,0.4-0.5,0.5c-0.2,0.1-0.4,0.2-0.6,0.2h-0.4
			c-0.2,0-0.5-0.1-0.6-0.2c-0.2-0.1-0.3-0.3-0.5-0.5l-2.8-5.5c0,0.1,0,0.3,0,0.4v7h-2.8V52h2.6c0.1,0,0.2,0,0.3,0.1
			c0.1,0,0.2,0.1,0.2,0.2c0.1,0.1,0.1,0.2,0.2,0.3l3.1,6.1c0.1,0.2,0.2,0.4,0.3,0.7c0,0.1,0.1,0.2,0.1,0.3c0.1-0.1,0.1-0.2,0.2-0.4
			c0.1-0.2,0.2-0.5,0.3-0.7l3.1-6c0.1-0.1,0.1-0.2,0.2-0.3c0.1-0.1,0.2-0.1,0.3-0.2c0.1,0,0.2,0,0.3-0.1H1266z"/>
	</g>
	<g>
		<path class="st1" d="M266,219.5h14c4.6,0,7.5,1.9,7.5,5.6c0,2.5-1,4.2-3.8,5.1c2.9,1.1,4.2,2.6,4.2,5.3c0,4.6-3.5,6.3-8.4,6.3H266
			V219.5z M278.2,228.4c1.8,0,2.6-0.6,2.6-2c0-1.3-0.8-1.9-2.6-1.9h-5.7v3.9H278.2z M278.5,236.7c2,0,2.7-0.6,2.7-2.1
			c0-1.4-0.8-2.1-2.7-2.1h-6v4.2L278.5,236.7z"/>
		<path class="st1" d="M301.3,234.7l-9.8-15.2h7.5l5.5,8.9h0.3l5.6-8.9h7.3l-9.7,15.1v7.2h-6.7V234.7z"/>
		<path class="st1" d="M335.2,219.5h13.2c5.5,0,8.4,3.2,8.4,8.3c0,5.8-3.7,8.5-8.9,8.5h-6v5.5h-6.7V219.5z M347.2,231.1
			c2.1,0,3-1.3,3-3.1c0-2-1-3.1-3-3.1h-5.2v6.2H347.2z"/>
		<path class="st1" d="M367.6,219.5h10.8l7.7,22.3h-7l-1.6-4.6h-9.2l-1.6,4.6h-6.9L367.6,219.5z M370,232.2h6l-2.4-7h-1.2L370,232.2
			z"/>
		<path class="st1" d="M392,219.5h6.7V236h11.8l-0.3,5.8H392V219.5z"/>
		<path class="st1" d="M414.9,230.7c0-7.3,4.9-11.8,12.7-11.8c7.8,0,12.7,4.6,12.7,11.8s-4.9,11.8-12.7,11.8
			C419.8,242.5,414.9,237.9,414.9,230.7z M433.7,230.7c0-3.9-2.2-6.1-6.1-6.1s-6.1,2.3-6.1,6.1c0,3.9,2.2,6.1,6.1,6.1
			C431.4,236.8,433.7,234.5,433.7,230.7z"/>
		<path class="st1" d="M464.9,219.5h10.8l7.7,22.3h-7l-1.6-4.6h-9.2l-1.6,4.6h-6.9L464.9,219.5z M467.2,232.2h6l-2.4-7h-1.2
			L467.2,232.2z"/>
		<path class="st1" d="M489.3,219.5h6.7V236h11.8l-0.3,5.8h-18.2V219.5z"/>
		<path class="st1" d="M517.1,225.3h-7.8l0.3-5.7h21.8l0.3,5.7h-7.8v16.6h-6.7V225.3z"/>
		<path class="st1" d="M536,230.7c0-7.3,4.9-11.8,12.7-11.8c7.8,0,12.7,4.6,12.7,11.8s-4.9,11.8-12.7,11.8
			C540.9,242.5,536,237.9,536,230.7z M554.8,230.7c0-3.9-2.2-6.1-6.1-6.1s-6.1,2.3-6.1,6.1c0,3.9,2.2,6.1,6.1,6.1
			C552.6,236.8,554.8,234.5,554.8,230.7z"/>
		<path class="st1" d="M580.4,219.5h6.9l9.6,12.6h0.1v-12.6h6.4v22.3h-6.7l-9.8-13h-0.1v13h-6.4V219.5z"/>
		<path class="st1" d="M611.3,219.5h19.5l0.3,5.4H618v3.1h10.3v4.9H618v3.5h13.5l-0.3,5.4h-19.9V219.5z"/>
		<path class="st1" d="M644.5,225.3h-7.8l0.3-5.7h21.8l0.3,5.7h-7.8v16.6h-6.7V225.3z"/>
		<path class="st1" d="M663.8,219.5h7.1l3.6,15.5h0.4l4.7-15.5h6.5l4.6,15.5h0.4l3.6-15.5h6.8l-5.9,22.3h-8.8l-4.1-13.4h-0.2
			l-4.1,13.4h-8.8L663.8,219.5z"/>
		<path class="st1" d="M705.9,230.7c0-7.3,4.9-11.8,12.7-11.8c7.8,0,12.7,4.6,12.7,11.8s-4.9,11.8-12.7,11.8
			C710.9,242.5,705.9,237.9,705.9,230.7z M724.7,230.7c0-3.9-2.2-6.1-6.1-6.1s-6.1,2.3-6.1,6.1c0,3.9,2.2,6.1,6.1,6.1
			C722.5,236.8,724.7,234.5,724.7,230.7z"/>
		<path class="st1" d="M738.1,219.5h13c5.9,0,8.8,2.8,8.8,8c0,3.6-1.5,6-4.3,7.1l5.3,7.2h-7.6l-4.1-5.9h-4.4v5.9h-6.7V219.5z
			 M750.2,230.7c2.2,0,3-1.2,3-2.9s-0.8-2.9-3-2.9h-5.4v5.8H750.2z"/>
		<path class="st1" d="M766.8,219.5h6.7v8.2h2.7l6.5-8.2h7.5l0,0l-8.5,10.7l9,11.6l0,0h-7.8l-6.8-8.6h-2.7v8.6h-6.7V219.5z"/>
		<path class="st1" d="M795.3,240.3v-6.1h0c3.7,1.9,7.4,2.8,10.5,2.8c2.4,0,3.6-0.6,3.6-1.7c0-1.1-0.8-1.4-5.6-2.2
			c-5.2-0.8-8.7-2.4-8.7-6.9c0-4.2,3.7-7.4,10.8-7.4c2.9,0,5.9,0.6,8.6,1.8v6.1l0,0c-2.6-1.5-6.2-2.5-9.1-2.5
			c-2.5,0-3.6,0.6-3.6,1.6c0,1.3,1.6,1.4,5.5,2.1c5.2,0.9,8.7,2.4,8.7,7.1c0,3.7-2.7,7.3-10.6,7.3
			C801.6,242.4,798.6,241.6,795.3,240.3z"/>
	</g>
</g>
</svg>
