<?xml version="1.0" encoding="utf-8"?>
<!-- Generator: Adobe Illustrator 25.2.0, SVG Export Plug-In . SVG Version: 6.00 Build 0)  -->
<svg version="1.1" id="Layer_1" xmlns="http://www.w3.org/2000/svg" xmlns:xlink="http://www.w3.org/1999/xlink" x="0px" y="0px"
	 viewBox="0 0 1266 255.2" style="enable-background:new 0 0 1266 255.2;" xml:space="preserve">
<style type="text/css">
	.st0{fill:#00C0E8;}
</style>
<g>
	<path d="M776,98.4c-27.7-4.1-33.8-7.2-33.8-13.4c0-6.2,7.8-11.4,26.3-11.4c14.5,0,29.5,3.6,42.7,9c3.4,1.3,6.5,2.8,9.6,4.2V59.6
		c-0.2-0.1-0.4-0.2-0.7-0.3c-14.5-6.2-29.9-9.5-50.1-9.5c-36.1,0-59.9,16.1-59.9,36.7c0,22.9,19.3,31,57.3,36.4
		c26.7,3.8,33.3,6.7,33.3,13.4c0,7.5-9.8,12.4-31.5,12.4c-14,0-30.6-3.9-44.9-9.6c-3.5-1.4-8.2-3.6-12-5.6v27.2
		c1.1,0.5,2.3,1,3.1,1.3c16.1,6.5,34.4,10.5,55.3,10.5c35.1,0,62.2-14.2,62.2-37.5C832.9,112.1,814.8,103.9,776,98.4z"/>
	<path d="M334,52.2c32.8,0,51.2,15.6,51.2,40c0,25.9-20.4,40.9-52.8,40.9h-35.6v37H266V52.2H334z M296.8,109.4H328
		c20,0,26.6-6.4,26.6-16.6c0-9.9-7.3-16.6-25.1-16.6h-32.6V109.4z"/>
	<path d="M467.7,170.2h-30.8V52.2h77.2c32.4,0,49.6,14.3,49.6,38.6c0,19.1-12.6,31.7-31,36.7l36.8,42.7h-35.2l-34.2-40.4h-32.4
		V170.2z M467.7,106.9h39c17.2,0,25.9-5.1,25.9-15.6c0-9.9-7.1-15.4-24.4-15.4h-40.4V106.9z"/>
	<path d="M654.6,52.2v117.9h-31V52.2H654.6z"/>
	<path d="M926.6,52.2l41.3,80.2h0.5l40.9-80.2h45v117.9h-30.5v-88h-0.4L978,170.3h-22l-45.5-88.2h-0.4v88h-28.5V52.2H926.6z"/>
	<path d="M1211.1,149.1h-67.7l-10.4,21.1H1101l60-118.7h33.6l60.2,118.7h-33.3L1211.1,149.1z M1154.1,127.5h46.4l-23-46.9h-0.4
		L1154.1,127.5z"/>
	<polygon class="st0" points="127.6,170.2 127.6,52 189.3,170.2 	"/>
	<polygon class="st0" points="127.6,52 65.9,170.2 127.6,170.2 127.6,255.2 0,127.6 65.3,62.3 75.6,52 127.6,0 	"/>
	<polygon points="1241.3,52 1251.1,52 1251.1,54.5 1247.8,54.5 1247.8,64.3 1244.7,64.3 1244.7,54.5 1241.3,54.5 	"/>
	<path d="M1266,52v12.3h-2.8v-7c0-0.1,0-0.2,0-0.4l-2.8,5.5c-0.1,0.2-0.3,0.4-0.5,0.5c-0.2,0.1-0.4,0.2-0.6,0.2h-0.4
		c-0.2,0-0.5-0.1-0.6-0.2c-0.2-0.1-0.3-0.3-0.5-0.5l-2.8-5.5c0,0.1,0,0.3,0,0.4v7h-2.8V52h2.6c0.1,0,0.2,0,0.3,0.1
		c0.1,0,0.2,0.1,0.2,0.2c0.1,0.1,0.1,0.2,0.2,0.3l3.1,6.1c0.1,0.2,0.2,0.4,0.3,0.7c0,0.1,0.1,0.2,0.1,0.3c0.1-0.1,0.1-0.2,0.2-0.4
		c0.1-0.2,0.2-0.5,0.3-0.7l3.1-6c0.1-0.1,0.1-0.2,0.2-0.3c0.1-0.1,0.2-0.1,0.3-0.2c0.1,0,0.2,0,0.3-0.1H1266z"/>
</g>
</svg>
