<?xml version="1.0" encoding="utf-8"?>
<!-- Generator: Adobe Illustrator 24.0.3, SVG Export Plug-In . SVG Version: 6.00 Build 0)  -->
<svg version="1.1" id="Layer_1" xmlns="http://www.w3.org/2000/svg" xmlns:xlink="http://www.w3.org/1999/xlink" x="0px" y="0px"
	 viewBox="0 0 1215 213.8" style="enable-background:new 0 0 1215 213.8;" xml:space="preserve">
<style type="text/css">
	.st0{fill:#FFCB06;}
</style>
<g>
	<g>
		<g>
			<polygon class="st0" points="54.1,107 88.4,48.3 123.2,48.2 123.2,0 61.2,0.3 0,107.2 62.1,213.8 123.2,213.5 123.2,166.9 
				88.9,166.9 			"/>
			<polygon class="st0" points="192.5,107 158.1,166.9 123.2,166.9 123.2,48.2 157.7,48.2 			"/>
		</g>
		<path d="M327.2,95.1c-27.7-4.1-33.8-7.2-33.8-13.4c0-6.2,7.8-11.4,26.3-11.4c14.5,0,29.5,3.6,42.7,9c3.4,1.3,6.5,2.8,9.6,4.2V56.4
			c-0.2-0.1-0.4-0.2-0.7-0.3c-14.5-6.2-29.9-9.5-50.1-9.5c-36.1,0-59.9,16.1-59.9,36.7c0,22.9,19.3,31,57.3,36.4
			c26.7,3.8,33.3,6.7,33.3,13.4c0,7.5-9.8,12.4-31.5,12.4c-14,0-30.6-3.9-44.9-9.6c-3.5-1.4-8.2-3.6-12-5.6v27.2
			c1.1,0.5,2.3,1,3.1,1.3c16.1,6.5,34.4,10.5,55.3,10.5c35.1,0,62.2-14.2,62.2-37.5C384.2,108.9,366.1,100.7,327.2,95.1z"/>
		<path d="M615.6,166.9h-30.8V49H662c32.4,0,49.6,14.3,49.6,38.6c0,19.1-12.6,31.7-31,36.7l36.8,42.7h-35.2L648,126.6h-32.4V166.9z
			 M615.6,103.7h39c17.2,0,25.9-5.1,25.9-15.6c0-9.9-7.1-15.4-24.4-15.4h-40.4V103.7z"/>
		<path d="M855.9,145.9h-67.7l-10.4,21.1h-32.1l60-118.7h33.6l60.2,118.7h-33.3L855.9,145.9z M798.9,124.3h46.4l-23-46.9h-0.4
			L798.9,124.3z"/>
		<path d="M1160.1,145.9h-67.7l-10.4,21.1H1050l60-118.7h33.6l60.2,118.7h-33.3L1160.1,145.9z M1103.1,124.3h46.4l-23-46.9h-0.4
			L1103.1,124.3z"/>
		<polygon points="1190.3,48.8 1200.1,48.8 1200.1,51.3 1196.8,51.3 1196.8,61 1193.7,61 1193.7,51.3 1190.3,51.3 		"/>
		<path d="M1215,48.8V61h-2.8v-7c0-0.1,0-0.2,0-0.4l-2.8,5.5c-0.1,0.2-0.3,0.4-0.5,0.5s-0.4,0.2-0.6,0.2h-0.4
			c-0.2,0-0.5-0.1-0.6-0.2c-0.2-0.1-0.3-0.3-0.5-0.5l-2.8-5.5c0,0.1,0,0.3,0,0.4v7h-2.8V48.8h2.6c0.1,0,0.2,0,0.3,0.1
			c0.1,0,0.2,0.1,0.2,0.2c0.1,0.1,0.1,0.2,0.2,0.3l3.1,6.1c0.1,0.2,0.2,0.4,0.3,0.7c0,0.1,0.1,0.2,0.1,0.3c0.1-0.1,0.1-0.2,0.2-0.4
			c0.1-0.2,0.2-0.5,0.3-0.7l3.1-6c0.1-0.1,0.1-0.2,0.2-0.3c0.1-0.1,0.2-0.1,0.3-0.2c0.1,0,0.2,0,0.3-0.1H1215z"/>
		<polygon points="910,73.9 959.7,73.9 959.7,166.9 992.7,166.9 992.7,73.9 1042.5,73.9 1042.5,48.4 910,48.4 		"/>
		<polygon points="411.4,73.9 461.2,73.9 461.2,166.9 494.2,166.9 494.2,73.9 544,73.9 544,48.4 411.4,48.4 		"/>
	</g>
</g>
</svg>
